<?xml version="1.0" encoding="UTF-8" standalone="no"?>
<!-- Created with Inkscape (http://www.inkscape.org/) -->

<svg
   version="1.1"
   id="svg94349"
   width="512"
   height="512"
   viewBox="0 0 512 512"
   sodipodi:docname="integrity.svg"
   inkscape:version="1.2.2 (732a01da63, 2022-12-09, custom)"
   xmlns:inkscape="http://www.inkscape.org/namespaces/inkscape"
   xmlns:sodipodi="http://sodipodi.sourceforge.net/DTD/sodipodi-0.dtd"
   xmlns="http://www.w3.org/2000/svg"
   xmlns:svg="http://www.w3.org/2000/svg">
  <sodipodi:namedview
     id="namedview345"
     pagecolor="#505050"
     bordercolor="#ffffff"
     borderopacity="1"
     inkscape:showpageshadow="0"
     inkscape:pageopacity="0"
     inkscape:pagecheckerboard="1"
     inkscape:deskcolor="#505050"
     showgrid="false"
     inkscape:zoom="1.1445312"
     inkscape:cx="-172.55973"
     inkscape:cy="256.43687"
     inkscape:window-width="1360"
     inkscape:window-height="737"
     inkscape:window-x="0"
     inkscape:window-y="0"
     inkscape:window-maximized="1"
     inkscape:current-layer="svg94349" />
  <defs
     id="defs94353" />
  <g
     id="g94357"
     transform="matrix(1.3333333,0,0,-1.3333333,-491.0349,370.25434)"
     style="fill:#38bdf8;fill-opacity:1">
    <g
       id="g94359"
       transform="scale(0.1)"
       style="fill:#38bdf8;fill-opacity:1">
      <g
         id="g94961"
         transform="matrix(9.5092464,0,0,9.5092464,-31911.257,-23629.39)"
         style="fill:#38bdf8;fill-opacity:1">
        <path
           d="m 3884.77,2553.09 h -129.54 c -2.85,0 -5.25,-2.39 -5.03,-5.23 2.67,-36.22 32.9,-64.77 69.8,-64.77 36.9,0 67.13,28.55 69.81,64.77 0.21,2.84 -2.19,5.23 -5.04,5.23 z m 250,0 h -129.54 c -2.85,0 -5.25,-2.39 -5.03,-5.23 2.67,-36.22 32.9,-64.77 69.8,-64.77 36.9,0 67.13,28.55 69.81,64.77 0.21,2.84 -2.19,5.23 -5.04,5.23"
           style="fill:#38bdf8;fill-opacity:1;fill-rule:nonzero;stroke:none"
           id="path94493" />
        <path
           d="m 4081.52,2672.21 c -1.6,3.84 -5.01,6.45 -8.98,7.29 -1.2,0.7 -2.48,1.3 -3.9,1.66 -25.69,6.43 -57.16,10.48 -92.18,12 -4,8.34 -11.17,14.78 -20,17.85 l 12.67,17.92 c 1.07,1.5 1.21,3.47 0.39,5.12 l -20.05,40.09 c -1.84,3.69 -7.1,3.69 -8.94,0 l -20.05,-40.09 c -0.82,-1.65 -0.67,-3.62 0.39,-5.12 l 12.67,-17.92 c -8.83,-3.07 -16,-9.51 -20,-17.85 -35.02,-1.52 -66.49,-5.57 -92.18,-12 -1.42,-0.36 -2.7,-0.96 -3.9,-1.66 -3.97,-0.84 -7.38,-3.45 -8.98,-7.29 l -39.45,-94.12 h 27.1 l 23.87,56.95 23.88,-56.95 h 27.1 l -32,76.32 c 21.43,4.52 46.67,7.47 74.49,8.73 2.62,-5.51 6.57,-10.25 11.53,-13.71 v -196.34 h -20 c -11.04,0 -20,-8.95 -20,-20 v -10 h -30 c -11.04,0 -20,-8.95 -20,-20 v -25 c 0,-2.76 2.24,-5 5,-5 h 210 c 2.76,0 5,2.24 5,5 v 25 c 0,11.05 -8.95,20 -20,20 h -30 v 10 c 0,11.05 -8.95,20 -20,20 h -20 v 196.34 c 4.96,3.46 8.91,8.2 11.53,13.71 27.82,-1.26 53.06,-4.21 74.49,-8.73 l -31.99,-76.32 h 27.1 l 23.87,56.95 23.88,-56.95 h 27.1 l -39.46,94.12"
           style="fill:#38bdf8;fill-opacity:1;fill-rule:nonzero;stroke:none"
           id="path94495" />
      </g>
    </g>
  </g>
</svg>
