<?xml version="1.0" encoding="UTF-8" standalone="no"?>
<!-- Created with Inkscape (http://www.inkscape.org/) -->

<svg
   version="1.1"
   id="svg94349"
   width="512"
   height="511.99997"
   viewBox="0 0 512 511.99997"
   sodipodi:docname="innovation.svg"
   inkscape:version="1.2.2 (732a01da63, 2022-12-09, custom)"
   xmlns:inkscape="http://www.inkscape.org/namespaces/inkscape"
   xmlns:sodipodi="http://sodipodi.sourceforge.net/DTD/sodipodi-0.dtd"
   xmlns="http://www.w3.org/2000/svg"
   xmlns:svg="http://www.w3.org/2000/svg">
  <defs
     id="defs94353" />
  <sodipodi:namedview
     id="namedview94351"
     pagecolor="#505050"
     bordercolor="#ffffff"
     borderopacity="1"
     inkscape:showpageshadow="0"
     inkscape:pageopacity="0"
     inkscape:pagecheckerboard="1"
     inkscape:deskcolor="#505050"
     showgrid="false"
     inkscape:zoom="0.51855472"
     inkscape:cx="-270.94537"
     inkscape:cy="182.23728"
     inkscape:window-width="1360"
     inkscape:window-height="737"
     inkscape:window-x="0"
     inkscape:window-y="0"
     inkscape:window-maximized="1"
     inkscape:current-layer="g94357" />
  <g
     id="g94357"
     inkscape:groupmode="layer"
     inkscape:label="Page 1"
     transform="matrix(1.3333333,0,0,-1.3333333,-49.463593,279.97337)">
    <g
       id="g94359"
       transform="matrix(0.1,0,0,0.1,28.851565,1.4935929e-6)"
       style="fill:#38bdf8;fill-opacity:1">
      <g
         id="g96284"
         transform="matrix(9.3750002,0,0,9.3750002,-3106.9325,-17585.825)"
         style="fill:#38bdf8;fill-opacity:1">
        <path
           d="m 478.652,1791.76 c -0.746,1.92 -2.597,3.19 -4.66,3.19 h -36.34 c -36.824,0 -66.675,-29.85 -66.675,-66.68 v -33.07 c 0,-2.76 2.238,-5 5,-5 h 134.804 c 3.516,0 5.938,3.53 4.664,6.81 z m 173.696,3.19 h -36.262 c -2.063,0 -3.914,-1.27 -4.66,-3.19 l -36.789,-94.75 c -1.274,-3.28 1.144,-6.81 4.66,-6.81 h 134.73 c 2.758,0 5,2.24 5,5 v 33.07 c 0,36.83 -29.855,66.68 -66.679,66.68"
           style="fill:#38bdf8;fill-opacity:1;fill-rule:nonzero;stroke:none"
           id="path94489" />
        <path
           d="m 419.984,1944.8 h -20 c -6.906,0 -12.5,-5.59 -12.5,-12.5 0,-6.9 5.594,-12.5 12.5,-12.5 h 20 c 6.903,0 12.5,5.6 12.5,12.5 0,6.91 -5.597,12.5 -12.5,12.5 z m 125,110 c 6.903,0 12.5,5.6 12.5,12.5 v 20 c 0,6.91 -5.597,12.5 -12.5,12.5 -6.906,0 -12.5,-5.59 -12.5,-12.5 v -20 c 0,-6.9 5.594,-12.5 12.5,-12.5 z m -93.691,-21.13 -14.141,14.14 c -4.882,4.89 -12.793,4.88 -17.675,0.01 -4.883,-4.88 -4.883,-12.8 0,-17.68 l 14.14,-14.15 c 2.442,-2.44 5.633,-3.66 8.836,-3.66 3.203,0 6.399,1.22 8.84,3.66 4.883,4.88 4.883,12.8 0,17.68 z m 93.711,-241.44 c -8.281,0 -15,-6.71 -15,-15 l -0.02,-69.92 c 0,-8.29 6.707,-15.01 15,-15.01 8.282,0 15,6.72 15,15 l 0.02,69.93 c 0,8.28 -6.711,15 -15,15 z m 125.488,255.59 c -4.883,4.87 -12.793,4.88 -17.676,-0.01 l -14.14,-14.14 c -4.883,-4.88 -4.883,-12.8 0,-17.68 2.441,-2.44 5.633,-3.66 8.836,-3.66 3.203,0 6.398,1.22 8.84,3.66 l 14.14,14.15 c 4.883,4.88 4.883,12.8 0,17.68 z m -136.367,-16.13 c -39.379,-4.45 -77.262,-42.14 -81.906,-81.49 -3.504,-29.71 6.965,-57 25.668,-76.29 10.816,-11.15 16.793,-26.11 16.793,-41.65 v -0.01 c 0,-7.94 6.437,-14.37 14.379,-14.37 h 71.886 c 7.938,0 14.375,6.43 14.375,14.37 0,15.38 5.707,30.35 16.469,41.33 16.484,16.83 26.664,39.84 26.664,65.27 0,55.19 -47.848,99.21 -104.328,92.84 z m 23.359,-129.89 v -34.5 c 0,-6.9 -5.597,-12.5 -12.5,-12.5 -6.906,0 -12.5,5.6 -12.5,12.5 v 34.5 c -14.5,4.5 -24.961,16.41 -24.961,30.5 0,6.91 5.594,12.5 12.5,12.5 6.903,0 12.5,-5.59 12.5,-12.5 0,-3.54 5.34,-7.5 12.481,-7.5 7.137,0 12.48,3.96 12.48,7.5 0,6.91 5.594,12.5 12.5,12.5 6.903,0 12.5,-5.59 12.5,-12.5 0,-14.1 -10.484,-26.02 -25,-30.5 z m 132.5,43 h -20 c -6.906,0 -12.5,-5.59 -12.5,-12.5 0,-6.9 5.594,-12.5 12.5,-12.5 h 20 c 6.903,0 12.5,5.6 12.5,12.5 0,6.91 -5.597,12.5 -12.5,12.5"
           style="fill:#38bdf8;fill-opacity:1;fill-rule:nonzero;stroke:none"
           id="path94491" />
      </g>
    </g>
  </g>
</svg>
