<?xml version="1.0" encoding="UTF-8" standalone="no"?>
<!-- Created with Inkscape (http://www.inkscape.org/) -->

<svg
   version="1.1"
   id="svg148"
   width="141.64844"
   height="141.65063"
   viewBox="0 0 141.64843 141.65063"
   sodipodi:docname="MANUAL CORPORATIVO FORTE INNOVATION.pdf"
   xmlns:inkscape="http://www.inkscape.org/namespaces/inkscape"
   xmlns:sodipodi="http://sodipodi.sourceforge.net/DTD/sodipodi-0.dtd"
   xmlns="http://www.w3.org/2000/svg"
   xmlns:svg="http://www.w3.org/2000/svg">
  <defs
     id="defs152">
    <clipPath
       clipPathUnits="userSpaceOnUse"
       id="clipPath1212">
      <path
         d="m 724.481,230.419 c -14.4,0 -26.075,-11.674 -26.075,-26.075 v 0 -54.088 c 0,-14.399 11.675,-26.075 26.075,-26.075 v 0 h 54.089 c 14.399,0 26.072,11.676 26.072,26.075 v 0 54.088 c 0,14.401 -11.673,26.075 -26.072,26.075 v 0 z"
         id="path1210" />
    </clipPath>
    <clipPath
       clipPathUnits="userSpaceOnUse"
       id="clipPath1276">
      <path
         d="M 0,1080 H 1413.021 V 0 H 0 Z"
         id="path1274" />
    </clipPath>
  </defs>
  <sodipodi:namedview
     id="namedview150"
     pagecolor="#505050"
     bordercolor="#ffffff"
     borderopacity="1"
     inkscape:showpageshadow="0"
     inkscape:pageopacity="0"
     inkscape:pagecheckerboard="1"
     inkscape:deskcolor="#505050"
     showgrid="false" />
  <g
     id="g1168"
     inkscape:groupmode="layer"
     inkscape:label="Page 11"
     transform="matrix(1.3333333,0,0,-1.3333333,-931.20796,307.22534)">
    <g
       id="g1206">
      <g
         id="g1208"
         clip-path="url(#clipPath1212)">
        <g
           id="g1214"
           transform="translate(664.998,218.5977)">
          <path
             d="M 0,0 127.824,45.229 173.055,-82.595 45.23,-127.825 Z"
             style="fill:#000058;fill-opacity:1;fill-rule:nonzero;stroke:none"
             id="path1216" />
        </g>
      </g>
    </g>
    <g
       id="g1270">
      <g
         id="g1272"
         clip-path="url(#clipPath1276)">
        <g
           id="g1278"
           transform="translate(752.4092,214.584)">
          <path
             d="m 0,0 h -8.408 v -2.815 l -0.001,-2.821 -7.511,-4.336 c -4.131,-2.384 -7.596,-4.382 -7.697,-4.44 l -0.186,-0.105 -1.246,0.699 c -0.684,0.382 -1.901,1.064 -2.703,1.512 -0.801,0.448 -1.482,0.821 -1.515,0.83 -0.048,0.012 -0.798,-1.308 -4.144,-7.284 -2.249,-4.016 -4.091,-7.316 -4.095,-7.338 -0.005,-0.018 1.218,-0.72 2.718,-1.559 l 2.727,-1.522 v -15.615 l -2.727,-1.523 c -1.5,-0.838 -2.727,-1.532 -2.727,-1.542 0,-0.009 1.843,-3.312 4.097,-7.337 2.254,-4.028 4.106,-7.323 4.121,-7.323 0.013,0 1.135,0.623 2.494,1.387 l 2.473,1.381 0.105,-0.059 c 0.058,-0.034 3.639,-2.102 7.959,-4.595 l 7.857,-4.535 v -2.817 l 0.001,-2.816 h 16.82 v 6.651 l 3.014,1.738 c 1.659,0.957 3.605,2.081 4.328,2.499 0.724,0.42 2.52,1.457 3.992,2.306 1.471,0.85 2.712,1.563 2.752,1.583 l 0.074,0.04 2.469,-1.38 c 1.356,-0.76 2.479,-1.383 2.488,-1.383 0.014,0 1.867,3.296 4.12,7.325 2.252,4.025 4.095,7.329 4.095,7.337 0,0.01 -1.225,0.704 -2.724,1.542 l -2.727,1.521 v 15.613 l 2.727,1.524 c 1.499,0.839 2.722,1.541 2.716,1.559 -0.004,0.02 -1.845,3.322 -4.094,7.338 -3.237,5.782 -4.097,7.296 -4.143,7.285 -0.029,-0.008 -1.264,-0.69 -2.743,-1.519 -1.479,-0.826 -2.705,-1.504 -2.726,-1.504 -0.019,0 -0.37,0.191 -0.774,0.428 -0.404,0.235 -1.654,0.958 -2.776,1.604 -1.119,0.645 -2.226,1.284 -2.461,1.422 -0.236,0.136 -1.323,0.764 -2.415,1.394 -1.093,0.631 -2.71,1.565 -3.59,2.073 l -1.602,0.924 v 6.658 z m -1.019,-8.45 c 0.373,0.004 0.994,-0.009 1.381,-0.028 0.391,-0.018 0.958,-0.054 1.265,-0.082 0.307,-0.025 0.803,-0.078 1.102,-0.117 0.296,-0.036 0.804,-0.11 1.126,-0.163 0.322,-0.054 0.839,-0.15 1.151,-0.214 0.309,-0.064 0.801,-0.175 1.089,-0.247 0.29,-0.074 0.733,-0.19 0.986,-0.264 0.253,-0.073 0.69,-0.206 0.969,-0.297 0.281,-0.092 0.761,-0.26 1.068,-0.371 0.308,-0.116 0.691,-0.261 0.853,-0.33 0.165,-0.066 0.504,-0.211 0.758,-0.321 0.252,-0.112 0.776,-0.36 1.164,-0.552 0.39,-0.191 0.913,-0.463 1.164,-0.602 0.251,-0.141 0.643,-0.364 0.871,-0.502 0.226,-0.137 0.672,-0.418 0.989,-0.627 0.315,-0.207 0.781,-0.526 1.034,-0.709 0.253,-0.181 0.622,-0.455 0.822,-0.611 0.2,-0.153 0.538,-0.428 0.755,-0.609 0.217,-0.18 0.595,-0.503 0.838,-0.719 0.244,-0.216 0.77,-0.719 1.165,-1.118 0.397,-0.398 0.925,-0.954 1.17,-1.234 0.247,-0.279 0.594,-0.687 0.769,-0.903 0.179,-0.217 0.524,-0.66 0.766,-0.986 0.244,-0.326 0.643,-0.895 0.889,-1.265 0.249,-0.37 0.566,-0.873 0.714,-1.116 0.146,-0.246 0.381,-0.65 0.522,-0.905 0.141,-0.255 0.413,-0.778 0.607,-1.165 0.19,-0.39 0.44,-0.915 0.552,-1.169 0.111,-0.255 0.312,-0.744 0.447,-1.086 0.135,-0.341 0.335,-0.887 0.447,-1.213 0.111,-0.325 0.281,-0.866 0.379,-1.2 0.098,-0.337 0.231,-0.824 0.296,-1.086 0.065,-0.26 0.178,-0.753 0.25,-1.093 0.07,-0.344 0.171,-0.883 0.224,-1.2 0.05,-0.318 0.124,-0.822 0.164,-1.121 0.035,-0.297 0.088,-0.793 0.116,-1.099 0.028,-0.308 0.066,-0.999 0.09,-1.538 0.03,-0.759 0.03,-1.193 0,-1.954 -0.024,-0.536 -0.062,-1.227 -0.09,-1.535 -0.028,-0.307 -0.081,-0.803 -0.116,-1.101 -0.04,-0.298 -0.114,-0.801 -0.164,-1.119 -0.053,-0.318 -0.154,-0.855 -0.224,-1.201 -0.072,-0.339 -0.185,-0.833 -0.25,-1.091 -0.065,-0.263 -0.198,-0.75 -0.296,-1.087 -0.098,-0.335 -0.268,-0.876 -0.379,-1.203 -0.112,-0.325 -0.312,-0.869 -0.447,-1.21 -0.135,-0.343 -0.336,-0.832 -0.447,-1.085 -0.112,-0.255 -0.362,-0.781 -0.552,-1.169 -0.194,-0.39 -0.458,-0.899 -0.589,-1.133 -0.131,-0.236 -0.365,-0.642 -0.521,-0.904 -0.156,-0.262 -0.484,-0.78 -0.733,-1.149 -0.246,-0.372 -0.645,-0.941 -0.889,-1.267 -0.242,-0.324 -0.587,-0.768 -0.766,-0.983 -0.175,-0.219 -0.522,-0.626 -0.769,-0.905 -0.245,-0.28 -0.787,-0.851 -1.202,-1.265 -0.414,-0.417 -0.984,-0.957 -1.267,-1.202 -0.278,-0.247 -0.684,-0.591 -0.902,-0.771 -0.216,-0.176 -0.66,-0.523 -0.984,-0.763 -0.326,-0.242 -0.895,-0.645 -1.265,-0.891 -0.371,-0.248 -0.888,-0.576 -1.151,-0.732 -0.261,-0.156 -0.667,-0.389 -0.904,-0.523 -0.231,-0.129 -0.743,-0.393 -1.133,-0.587 -0.388,-0.191 -0.912,-0.437 -1.164,-0.548 -0.254,-0.112 -0.593,-0.256 -0.758,-0.322 -0.162,-0.069 -0.545,-0.215 -0.853,-0.33 C 8.811,-64.454 8.331,-64.622 8.05,-64.713 7.771,-64.804 7.334,-64.938 7.081,-65.01 6.828,-65.083 6.385,-65.2 6.095,-65.273 5.807,-65.348 5.312,-65.461 4.994,-65.522 4.678,-65.59 4.163,-65.685 3.846,-65.737 3.53,-65.788 3.025,-65.862 2.729,-65.899 2.43,-65.937 1.942,-65.989 1.645,-66.017 1.346,-66.042 0.65,-66.083 0.1,-66.104 c -0.781,-0.034 -1.217,-0.034 -1.972,-0.002 -0.532,0.021 -1.22,0.062 -1.527,0.087 -0.307,0.03 -0.802,0.082 -1.1,0.12 -0.3,0.037 -0.838,0.116 -1.2,0.178 -0.362,0.06 -0.903,0.162 -1.203,0.226 -0.299,0.061 -0.752,0.168 -1.009,0.232 -0.257,0.065 -0.744,0.199 -1.084,0.296 -0.341,0.097 -0.914,0.282 -1.274,0.405 -0.359,0.124 -0.934,0.338 -1.278,0.475 -0.344,0.135 -0.891,0.367 -1.217,0.516 -0.324,0.146 -0.915,0.435 -1.312,0.637 -0.399,0.207 -0.975,0.521 -1.281,0.699 -0.307,0.18 -0.683,0.408 -0.837,0.502 -0.155,0.098 -0.53,0.346 -0.838,0.552 -0.308,0.209 -0.816,0.571 -1.128,0.805 -0.316,0.234 -0.742,0.566 -0.953,0.74 -0.21,0.173 -0.612,0.514 -0.893,0.761 -0.28,0.245 -0.835,0.771 -1.234,1.167 -0.4,0.398 -0.902,0.924 -1.117,1.168 -0.218,0.244 -0.541,0.621 -0.721,0.838 -0.181,0.217 -0.455,0.557 -0.61,0.754 -0.153,0.201 -0.429,0.57 -0.61,0.822 -0.182,0.254 -0.502,0.719 -0.711,1.035 -0.206,0.317 -0.488,0.761 -0.623,0.987 -0.135,0.224 -0.36,0.618 -0.502,0.869 -0.139,0.254 -0.414,0.778 -0.604,1.168 -0.194,0.388 -0.442,0.913 -0.55,1.163 -0.112,0.254 -0.257,0.595 -0.323,0.758 -0.067,0.163 -0.189,0.472 -0.27,0.69 -0.082,0.217 -0.22,0.607 -0.309,0.869 -0.09,0.266 -0.23,0.697 -0.311,0.965 -0.081,0.269 -0.235,0.832 -0.342,1.249 -0.106,0.42 -0.253,1.064 -0.325,1.435 -0.072,0.371 -0.17,0.917 -0.216,1.216 -0.046,0.296 -0.112,0.791 -0.149,1.098 -0.035,0.309 -0.088,0.862 -0.113,1.233 -0.029,0.371 -0.061,1.074 -0.071,1.561 -0.012,0.522 -0.007,1.223 0.017,1.708 0.02,0.451 0.06,1.072 0.088,1.38 0.028,0.307 0.078,0.788 0.114,1.067 0.035,0.281 0.102,0.746 0.148,1.036 0.047,0.288 0.144,0.814 0.215,1.164 0.073,0.355 0.191,0.878 0.262,1.167 0.073,0.288 0.191,0.734 0.264,0.986 0.073,0.252 0.207,0.69 0.297,0.969 0.091,0.281 0.26,0.762 0.373,1.067 0.113,0.308 0.261,0.693 0.328,0.855 0.066,0.162 0.211,0.502 0.323,0.756 0.108,0.253 0.351,0.767 0.537,1.144 0.188,0.376 0.43,0.848 0.542,1.052 0.108,0.203 0.35,0.618 0.531,0.925 0.181,0.307 0.548,0.883 0.815,1.282 0.263,0.398 0.65,0.949 0.859,1.224 0.209,0.279 0.557,0.723 0.772,0.987 0.217,0.266 0.584,0.697 0.812,0.958 0.233,0.261 0.755,0.811 1.164,1.217 0.406,0.407 0.97,0.939 1.25,1.185 0.281,0.245 0.687,0.593 0.902,0.769 0.218,0.178 0.663,0.523 0.989,0.765 0.325,0.244 0.891,0.643 1.262,0.891 0.373,0.246 0.888,0.574 1.15,0.73 0.265,0.156 0.68,0.396 0.925,0.533 0.247,0.136 0.688,0.366 0.979,0.511 0.29,0.146 0.775,0.378 1.078,0.517 0.303,0.134 0.806,0.35 1.116,0.475 0.312,0.124 0.839,0.321 1.169,0.437 0.334,0.117 0.847,0.288 1.145,0.378 0.294,0.091 0.826,0.237 1.179,0.327 0.35,0.093 0.927,0.226 1.279,0.3 0.353,0.074 0.907,0.176 1.231,0.231 0.327,0.053 0.827,0.125 1.11,0.16 0.284,0.037 0.795,0.09 1.129,0.118 0.337,0.031 0.851,0.066 1.143,0.08 0.292,0.014 0.833,0.027 1.204,0.029 z m 0.018,-2.234 c -0.487,-0.002 -0.968,-0.009 -1.067,-0.016 -0.098,-0.006 -0.424,-0.026 -0.723,-0.045 -0.299,-0.02 -0.795,-0.065 -1.102,-0.101 -0.306,-0.035 -0.8,-0.099 -1.099,-0.146 -0.299,-0.045 -0.838,-0.141 -1.198,-0.212 -0.364,-0.073 -0.947,-0.206 -1.299,-0.298 -0.354,-0.089 -0.907,-0.247 -1.233,-0.346 -0.325,-0.101 -0.856,-0.277 -1.181,-0.396 -0.326,-0.118 -0.755,-0.281 -0.952,-0.361 -0.2,-0.083 -0.517,-0.216 -0.708,-0.297 -0.191,-0.081 -0.597,-0.273 -0.904,-0.418 -0.306,-0.15 -0.81,-0.408 -1.116,-0.574 -0.308,-0.17 -0.745,-0.419 -0.968,-0.552 -0.227,-0.137 -0.685,-0.428 -1.02,-0.65 -0.335,-0.221 -0.786,-0.532 -1.001,-0.691 -0.218,-0.158 -0.639,-0.482 -0.937,-0.722 -0.299,-0.238 -0.734,-0.6 -0.97,-0.807 -0.235,-0.205 -0.783,-0.728 -1.217,-1.162 -0.434,-0.434 -0.957,-0.982 -1.161,-1.217 -0.207,-0.236 -0.569,-0.671 -0.808,-0.969 -0.237,-0.3 -0.542,-0.689 -0.675,-0.87 -0.133,-0.181 -0.406,-0.572 -0.608,-0.873 -0.203,-0.296 -0.489,-0.74 -0.64,-0.984 -0.15,-0.244 -0.396,-0.667 -0.548,-0.935 -0.153,-0.273 -0.437,-0.819 -0.633,-1.215 -0.197,-0.399 -0.466,-0.981 -0.6,-1.298 -0.135,-0.318 -0.331,-0.806 -0.436,-1.086 -0.105,-0.279 -0.24,-0.657 -0.299,-0.839 -0.064,-0.18 -0.178,-0.54 -0.257,-0.804 -0.08,-0.261 -0.213,-0.734 -0.294,-1.05 -0.083,-0.317 -0.202,-0.82 -0.264,-1.117 -0.062,-0.3 -0.16,-0.808 -0.212,-1.133 -0.056,-0.326 -0.13,-0.836 -0.166,-1.133 -0.037,-0.299 -0.082,-0.715 -0.099,-0.922 -0.02,-0.207 -0.05,-0.651 -0.067,-0.986 -0.017,-0.333 -0.033,-0.954 -0.033,-1.38 0,-0.425 0.016,-1.045 0.033,-1.378 0.017,-0.334 0.047,-0.778 0.067,-0.986 0.017,-0.208 0.062,-0.621 0.099,-0.921 0.036,-0.296 0.11,-0.808 0.166,-1.133 0.052,-0.324 0.149,-0.831 0.211,-1.124 0.063,-0.292 0.15,-0.685 0.197,-0.87 0.045,-0.186 0.151,-0.572 0.231,-0.858 0.08,-0.288 0.2,-0.684 0.265,-0.887 0.063,-0.201 0.227,-0.668 0.362,-1.034 0.134,-0.369 0.357,-0.931 0.493,-1.249 0.137,-0.32 0.37,-0.831 0.519,-1.137 0.148,-0.31 0.407,-0.813 0.574,-1.12 0.171,-0.306 0.418,-0.743 0.553,-0.97 0.134,-0.224 0.427,-0.682 0.648,-1.017 0.222,-0.335 0.532,-0.786 0.69,-1.005 0.159,-0.212 0.484,-0.634 0.723,-0.932 0.239,-0.3 0.601,-0.736 0.808,-0.97 0.204,-0.236 0.727,-0.782 1.161,-1.218 0.434,-0.435 0.982,-0.957 1.217,-1.161 0.236,-0.206 0.671,-0.568 0.97,-0.806 0.298,-0.241 0.687,-0.541 0.864,-0.672 0.176,-0.13 0.545,-0.389 0.822,-0.577 0.274,-0.186 0.712,-0.472 0.975,-0.632 0.262,-0.164 0.72,-0.433 1.018,-0.6 0.298,-0.167 0.851,-0.454 1.231,-0.642 0.38,-0.186 0.896,-0.424 1.15,-0.536 0.255,-0.105 0.632,-0.261 0.837,-0.344 0.21,-0.082 0.615,-0.232 0.903,-0.335 0.289,-0.102 0.769,-0.259 1.07,-0.35 0.297,-0.089 0.793,-0.227 1.101,-0.307 0.306,-0.082 0.802,-0.196 1.101,-0.261 0.298,-0.064 0.817,-0.159 1.15,-0.216 0.333,-0.054 0.838,-0.126 1.119,-0.161 0.281,-0.035 0.814,-0.09 1.183,-0.124 0.51,-0.044 1.012,-0.057 2.098,-0.059 0.879,0 1.615,0.017 1.906,0.041 0.263,0.023 0.692,0.064 0.952,0.092 0.263,0.028 0.735,0.089 1.052,0.132 0.317,0.047 0.842,0.136 1.165,0.199 0.326,0.063 0.837,0.172 1.136,0.244 0.297,0.071 0.826,0.211 1.172,0.311 0.348,0.101 0.895,0.27 1.217,0.381 0.32,0.108 0.84,0.3 1.151,0.424 0.314,0.126 0.779,0.32 1.034,0.43 0.258,0.11 0.807,0.378 1.222,0.589 0.416,0.211 0.897,0.464 1.069,0.563 0.171,0.099 0.504,0.294 0.739,0.436 0.235,0.142 0.699,0.442 1.036,0.666 0.334,0.227 0.813,0.565 1.067,0.758 0.252,0.19 0.643,0.492 0.865,0.673 0.222,0.179 0.591,0.49 0.82,0.692 0.23,0.199 0.766,0.712 1.192,1.136 0.424,0.426 0.961,0.988 1.188,1.25 0.226,0.261 0.546,0.636 0.708,0.839 0.16,0.196 0.446,0.566 0.635,0.819 0.192,0.253 0.489,0.669 0.661,0.922 0.172,0.253 0.421,0.629 0.55,0.838 0.132,0.206 0.378,0.621 0.553,0.92 0.17,0.298 0.463,0.837 0.647,1.197 0.182,0.361 0.42,0.85 0.525,1.084 0.104,0.236 0.312,0.731 0.462,1.104 0.149,0.372 0.375,0.986 0.503,1.365 0.125,0.376 0.299,0.927 0.382,1.222 0.085,0.297 0.217,0.814 0.297,1.152 0.077,0.337 0.187,0.848 0.243,1.136 0.052,0.29 0.134,0.778 0.179,1.085 0.045,0.307 0.113,0.862 0.148,1.232 0.038,0.371 0.083,0.955 0.101,1.297 0.018,0.343 0.035,0.965 0.035,1.381 0,0.415 -0.017,1.012 -0.034,1.329 -0.017,0.316 -0.048,0.761 -0.068,0.987 -0.019,0.226 -0.062,0.655 -0.101,0.954 -0.034,0.297 -0.116,0.844 -0.178,1.214 -0.064,0.371 -0.166,0.911 -0.23,1.198 -0.063,0.29 -0.175,0.75 -0.245,1.021 -0.069,0.271 -0.21,0.762 -0.308,1.087 -0.098,0.328 -0.277,0.857 -0.395,1.181 -0.115,0.323 -0.3,0.805 -0.408,1.066 -0.108,0.263 -0.281,0.67 -0.384,0.904 -0.104,0.235 -0.342,0.721 -0.524,1.083 -0.184,0.36 -0.477,0.899 -0.647,1.199 -0.175,0.297 -0.421,0.711 -0.553,0.919 -0.129,0.21 -0.378,0.585 -0.55,0.838 -0.172,0.253 -0.469,0.667 -0.659,0.92 -0.191,0.253 -0.49,0.639 -0.666,0.855 -0.175,0.22 -0.496,0.596 -0.707,0.837 -0.213,0.245 -0.734,0.792 -1.16,1.215 -0.426,0.427 -0.967,0.943 -1.203,1.148 -0.234,0.207 -0.67,0.568 -0.968,0.807 -0.298,0.24 -0.733,0.574 -0.968,0.745 -0.236,0.171 -0.652,0.462 -0.925,0.645 -0.273,0.181 -0.756,0.485 -1.069,0.675 -0.311,0.186 -0.812,0.47 -1.108,0.63 -0.297,0.157 -0.768,0.397 -1.048,0.532 -0.279,0.131 -0.746,0.344 -1.038,0.469 -0.292,0.124 -0.728,0.303 -0.972,0.395 -0.242,0.093 -0.657,0.241 -0.918,0.332 -0.264,0.089 -0.752,0.243 -1.087,0.341 -0.334,0.098 -0.821,0.23 -1.083,0.296 -0.262,0.066 -0.801,0.184 -1.2,0.262 -0.398,0.079 -0.981,0.181 -1.298,0.226 -0.317,0.046 -0.871,0.114 -1.232,0.151 -0.361,0.038 -0.937,0.082 -1.281,0.098 -0.343,0.019 -1.023,0.031 -1.511,0.028 m 0.361,-1.426 c 0.199,-0.009 0.607,-0.021 0.905,-0.03 0.3,-0.008 0.788,-0.039 1.085,-0.066 0.296,-0.027 0.724,-0.072 0.951,-0.1 0.226,-0.029 0.709,-0.102 1.073,-0.164 0.363,-0.059 0.897,-0.163 1.183,-0.226 0.285,-0.064 0.8,-0.191 1.143,-0.282 0.345,-0.091 0.948,-0.275 1.347,-0.407 0.399,-0.134 0.968,-0.337 1.266,-0.455 0.296,-0.116 0.759,-0.309 1.022,-0.427 0.266,-0.122 0.765,-0.358 1.107,-0.531 0.344,-0.172 0.869,-0.452 1.162,-0.621 0.294,-0.17 0.707,-0.416 0.914,-0.546 0.209,-0.133 0.561,-0.366 0.788,-0.52 0.225,-0.157 0.552,-0.386 0.723,-0.511 0.173,-0.127 0.524,-0.4 0.784,-0.605 0.26,-0.207 0.702,-0.581 0.984,-0.83 0.283,-0.248 0.814,-0.752 1.178,-1.119 0.366,-0.37 0.816,-0.84 0.998,-1.049 0.185,-0.207 0.529,-0.623 0.769,-0.919 0.239,-0.298 0.565,-0.719 0.724,-0.937 0.157,-0.216 0.454,-0.646 0.658,-0.954 0.203,-0.305 0.457,-0.704 0.565,-0.885 0.108,-0.182 0.3,-0.514 0.43,-0.743 0.127,-0.228 0.361,-0.673 0.519,-0.987 0.156,-0.313 0.38,-0.784 0.495,-1.046 0.117,-0.263 0.295,-0.684 0.395,-0.935 0.099,-0.253 0.254,-0.666 0.344,-0.919 0.09,-0.255 0.243,-0.724 0.338,-1.042 0.098,-0.318 0.245,-0.844 0.327,-1.167 0.08,-0.323 0.192,-0.817 0.248,-1.096 0.056,-0.279 0.137,-0.73 0.183,-1 0.044,-0.272 0.109,-0.737 0.146,-1.036 0.035,-0.297 0.088,-0.851 0.117,-1.226 0.029,-0.422 0.048,-1.113 0.048,-1.796 0,-0.69 -0.019,-1.372 -0.05,-1.797 -0.028,-0.376 -0.08,-0.928 -0.116,-1.226 -0.036,-0.297 -0.094,-0.728 -0.13,-0.954 -0.038,-0.224 -0.119,-0.676 -0.184,-1.002 -0.063,-0.324 -0.189,-0.879 -0.278,-1.229 -0.091,-0.354 -0.246,-0.905 -0.344,-1.229 -0.102,-0.325 -0.282,-0.864 -0.407,-1.201 -0.124,-0.34 -0.339,-0.888 -0.481,-1.221 -0.142,-0.333 -0.449,-0.99 -0.687,-1.46 -0.238,-0.47 -0.561,-1.075 -0.721,-1.344 -0.158,-0.27 -0.421,-0.696 -0.582,-0.948 -0.161,-0.253 -0.457,-0.69 -0.659,-0.973 -0.203,-0.281 -0.504,-0.688 -0.672,-0.903 -0.167,-0.216 -0.501,-0.622 -0.741,-0.903 -0.241,-0.282 -0.733,-0.815 -1.092,-1.184 -0.364,-0.368 -0.881,-0.87 -1.155,-1.117 -0.272,-0.245 -0.685,-0.603 -0.917,-0.793 -0.234,-0.192 -0.605,-0.481 -0.819,-0.644 -0.219,-0.162 -0.608,-0.445 -0.873,-0.627 -0.262,-0.181 -0.73,-0.487 -1.042,-0.68 -0.312,-0.19 -0.784,-0.468 -1.052,-0.618 -0.266,-0.145 -0.781,-0.411 -1.141,-0.588 -0.361,-0.176 -0.915,-0.428 -1.232,-0.562 -0.317,-0.134 -0.864,-0.35 -1.218,-0.478 -0.355,-0.128 -0.893,-0.308 -1.199,-0.402 -0.307,-0.092 -0.84,-0.24 -1.186,-0.326 -0.347,-0.089 -0.932,-0.22 -1.298,-0.293 -0.367,-0.073 -0.926,-0.17 -1.242,-0.213 -0.316,-0.047 -0.796,-0.106 -1.069,-0.132 -0.27,-0.028 -0.755,-0.067 -1.077,-0.087 -0.373,-0.025 -1.05,-0.033 -1.887,-0.021 -0.778,0.009 -1.517,0.037 -1.83,0.068 -0.287,0.028 -0.585,0.059 -0.658,0.068 -0.072,0.01 -0.302,0.039 -0.51,0.069 -0.209,0.026 -0.562,0.081 -0.788,0.117 -0.226,0.037 -0.683,0.124 -1.018,0.191 -0.334,0.073 -0.837,0.189 -1.118,0.261 -0.279,0.072 -0.709,0.193 -0.952,0.268 -0.245,0.075 -0.495,0.151 -0.559,0.17 -0.063,0.019 -0.381,0.128 -0.705,0.247 -0.326,0.116 -0.8,0.299 -1.053,0.404 -0.253,0.104 -0.653,0.277 -0.887,0.386 -0.234,0.107 -0.62,0.292 -0.853,0.41 -0.235,0.117 -0.669,0.348 -0.962,0.512 -0.297,0.165 -0.775,0.451 -1.069,0.633 -0.293,0.184 -0.725,0.467 -0.959,0.63 -0.236,0.165 -0.606,0.431 -0.821,0.594 -0.217,0.164 -0.506,0.385 -0.642,0.495 -0.134,0.106 -0.459,0.383 -0.721,0.608 -0.261,0.226 -0.771,0.701 -1.13,1.052 -0.358,0.353 -0.833,0.842 -1.052,1.084 -0.219,0.246 -0.48,0.541 -0.58,0.657 -0.099,0.12 -0.272,0.328 -0.381,0.461 -0.109,0.136 -0.356,0.459 -0.55,0.715 -0.194,0.258 -0.533,0.739 -0.752,1.069 -0.222,0.329 -0.531,0.812 -0.685,1.075 -0.154,0.261 -0.36,0.616 -0.456,0.789 -0.098,0.17 -0.324,0.617 -0.511,0.99 -0.183,0.372 -0.448,0.947 -0.588,1.277 -0.14,0.331 -0.356,0.877 -0.479,1.215 -0.126,0.339 -0.308,0.878 -0.407,1.203 -0.099,0.324 -0.234,0.786 -0.296,1.03 -0.063,0.243 -0.16,0.637 -0.21,0.871 -0.056,0.235 -0.144,0.678 -0.2,0.984 -0.057,0.305 -0.139,0.821 -0.182,1.149 -0.046,0.328 -0.105,0.859 -0.135,1.183 -0.029,0.327 -0.064,0.96 -0.074,1.408 -0.012,0.446 -0.012,1.179 0,1.624 0.01,0.448 0.045,1.08 0.074,1.405 0.03,0.327 0.089,0.857 0.135,1.184 0.043,0.328 0.125,0.844 0.182,1.15 0.056,0.305 0.139,0.718 0.183,0.918 0.043,0.198 0.118,0.51 0.161,0.691 0.047,0.18 0.158,0.58 0.246,0.886 0.086,0.308 0.245,0.802 0.347,1.101 0.1,0.297 0.28,0.787 0.399,1.084 0.116,0.299 0.307,0.75 0.42,1.008 0.116,0.255 0.349,0.745 0.522,1.088 0.173,0.347 0.453,0.869 0.623,1.162 0.169,0.295 0.415,0.707 0.546,0.913 0.13,0.21 0.363,0.564 0.52,0.789 0.154,0.226 0.406,0.583 0.559,0.788 0.153,0.208 0.452,0.593 0.665,0.855 0.21,0.262 0.577,0.691 0.811,0.953 0.234,0.261 0.713,0.761 1.061,1.106 0.351,0.348 0.809,0.78 1.016,0.963 0.208,0.185 0.622,0.532 0.921,0.772 0.297,0.24 0.717,0.563 0.935,0.723 0.218,0.158 0.646,0.455 0.953,0.658 0.309,0.204 0.709,0.458 0.892,0.567 0.184,0.11 0.501,0.295 0.71,0.413 0.205,0.117 0.648,0.35 0.981,0.516 0.333,0.165 0.819,0.397 1.08,0.515 0.263,0.116 0.683,0.293 0.935,0.394 0.256,0.1 0.733,0.277 1.065,0.393 0.332,0.113 0.856,0.283 1.165,0.37 0.311,0.088 0.741,0.208 0.958,0.26 0.218,0.056 0.682,0.157 1.035,0.229 0.353,0.073 0.885,0.171 1.181,0.217 0.301,0.048 0.737,0.104 0.971,0.131 0.234,0.025 0.627,0.065 0.87,0.086 0.245,0.023 0.777,0.05 1.184,0.064 0.406,0.013 0.901,0.018 1.099,0.013 m -0.723,-4.46 c -0.228,0.006 -0.415,-0.007 -0.509,-0.033 -0.081,-0.025 -0.205,-0.067 -0.274,-0.097 -0.071,-0.03 -0.222,-0.122 -0.339,-0.205 l -0.212,-0.152 0.022,-0.776 c 0.013,-0.428 0.063,-2.396 0.11,-4.375 0.049,-2.048 0.076,-3.704 0.062,-3.843 -0.015,-0.137 -0.057,-0.35 -0.094,-0.477 -0.038,-0.127 -0.155,-0.44 -0.261,-0.695 -0.108,-0.255 -0.218,-0.548 -0.246,-0.656 -0.031,-0.118 -0.042,-0.246 -0.031,-0.323 0.012,-0.072 0.056,-0.191 0.098,-0.264 0.04,-0.072 0.435,-0.489 0.875,-0.923 0.679,-0.669 0.834,-0.805 1.033,-0.911 0.128,-0.065 0.335,-0.144 0.461,-0.174 0.158,-0.039 0.306,-0.047 0.504,-0.035 0.154,0.01 0.364,0.048 0.467,0.084 0.103,0.036 0.258,0.107 0.345,0.156 0.087,0.051 0.284,0.215 0.44,0.364 l 0.281,0.27 0.16,-0.161 0.158,-0.162 -0.117,-0.258 c -0.063,-0.138 -0.156,-0.377 -0.203,-0.529 -0.047,-0.15 -0.109,-0.41 -0.137,-0.575 -0.034,-0.175 -0.054,-0.488 -0.054,-0.743 -0.002,-0.271 0.02,-0.565 0.054,-0.755 0.029,-0.17 0.085,-0.421 0.124,-0.552 l 0.072,-0.243 -0.164,-0.158 c -0.088,-0.085 -0.785,-0.743 -1.547,-1.462 -0.765,-0.717 -1.403,-1.299 -1.419,-1.292 -0.014,0.005 -0.589,0.533 -1.276,1.171 l -1.247,1.163 0.08,0.25 c 0.043,0.136 0.115,0.391 0.157,0.563 0.045,0.172 0.103,0.452 0.13,0.62 0.026,0.17 0.064,0.528 0.084,0.796 0.027,0.358 0.027,0.623 0,0.988 -0.022,0.276 -0.073,0.694 -0.117,0.934 -0.044,0.24 -0.133,0.603 -0.195,0.811 -0.064,0.209 -0.163,0.496 -0.217,0.636 -0.056,0.143 -0.182,0.42 -0.28,0.62 -0.096,0.199 -0.293,0.538 -0.435,0.754 -0.142,0.218 -0.348,0.507 -0.455,0.642 -0.109,0.135 -0.327,0.382 -0.484,0.549 -0.157,0.166 -0.436,0.424 -0.615,0.575 -0.181,0.149 -0.5,0.387 -0.709,0.528 -0.21,0.14 -0.589,0.357 -0.844,0.482 -0.258,0.125 -0.607,0.28 -0.785,0.343 -0.178,0.066 -0.486,0.161 -0.69,0.213 -0.203,0.054 -0.507,0.12 -0.682,0.148 -0.172,0.029 -0.459,0.067 -0.64,0.086 -0.18,0.017 -0.482,0.031 -0.674,0.031 -0.189,0.002 -0.506,-0.014 -0.706,-0.031 -0.198,-0.02 -0.528,-0.065 -0.729,-0.102 -0.203,-0.035 -0.53,-0.111 -0.723,-0.163 -0.195,-0.057 -0.545,-0.176 -0.777,-0.265 -0.231,-0.093 -0.407,-0.179 -0.395,-0.193 0.018,-0.013 0.258,-0.086 0.539,-0.158 0.28,-0.074 1.172,-0.313 1.985,-0.53 0.812,-0.218 1.488,-0.408 1.5,-0.421 0.011,-0.012 0.299,-1.053 0.633,-2.308 l 0.612,-2.284 -1.684,-1.685 c -0.925,-0.925 -1.7,-1.681 -1.721,-1.681 -0.023,0 -1.055,0.272 -2.295,0.605 -1.242,0.331 -2.269,0.616 -2.282,0.633 -0.013,0.014 -0.266,0.932 -0.561,2.038 -0.296,1.107 -0.548,2.001 -0.559,1.986 -0.013,-0.011 -0.082,-0.17 -0.156,-0.351 -0.073,-0.18 -0.177,-0.478 -0.232,-0.658 -0.056,-0.18 -0.13,-0.463 -0.166,-0.626 -0.037,-0.163 -0.089,-0.472 -0.116,-0.683 -0.032,-0.229 -0.051,-0.637 -0.051,-1 0,-0.34 0.015,-0.742 0.034,-0.895 0.02,-0.153 0.065,-0.432 0.1,-0.624 0.036,-0.188 0.119,-0.518 0.18,-0.729 0.063,-0.211 0.158,-0.5 0.213,-0.641 0.059,-0.14 0.19,-0.425 0.293,-0.635 0.105,-0.21 0.254,-0.484 0.332,-0.607 0.078,-0.127 0.267,-0.397 0.422,-0.606 0.156,-0.213 0.473,-0.572 0.723,-0.823 0.247,-0.245 0.594,-0.555 0.776,-0.692 0.181,-0.136 0.47,-0.334 0.639,-0.439 0.173,-0.106 0.506,-0.287 0.745,-0.4 0.237,-0.115 0.627,-0.273 0.869,-0.352 0.243,-0.082 0.613,-0.186 0.822,-0.231 0.21,-0.049 0.587,-0.109 0.839,-0.138 0.338,-0.042 0.613,-0.048 1.079,-0.036 0.4,0.013 0.764,0.043 1.017,0.087 0.218,0.034 0.492,0.09 0.609,0.116 0.118,0.03 0.333,0.087 0.479,0.132 l 0.27,0.081 0.275,-0.289 c 0.154,-0.154 0.659,-0.687 1.121,-1.179 0.465,-0.495 0.844,-0.912 0.844,-0.927 0,-0.019 -0.931,-0.908 -2.071,-1.979 -1.135,-1.073 -2.068,-1.956 -2.068,-1.965 0,-0.011 1.223,-1.241 2.717,-2.737 l 2.72,-2.717 1.796,1.928 c 0.989,1.064 1.839,1.971 1.889,2.019 l 0.093,0.089 3.495,-3.719 c 1.923,-2.043 3.587,-3.795 3.697,-3.893 0.109,-0.096 0.31,-0.242 0.444,-0.318 0.134,-0.08 0.364,-0.189 0.511,-0.242 0.144,-0.051 0.418,-0.121 0.605,-0.153 0.262,-0.045 0.44,-0.052 0.74,-0.038 0.216,0.014 0.501,0.044 0.626,0.072 0.128,0.027 0.348,0.086 0.494,0.135 0.144,0.045 0.409,0.155 0.59,0.244 0.183,0.085 0.459,0.25 0.619,0.363 0.159,0.113 0.411,0.335 0.558,0.49 0.147,0.158 0.34,0.405 0.428,0.549 0.088,0.146 0.216,0.406 0.286,0.577 0.071,0.173 0.163,0.458 0.209,0.637 0.046,0.178 0.099,0.464 0.121,0.636 0.023,0.181 0.031,0.499 0.019,0.755 -0.009,0.245 -0.041,0.555 -0.07,0.691 -0.028,0.134 -0.084,0.341 -0.122,0.46 -0.039,0.117 -0.129,0.331 -0.2,0.476 -0.071,0.145 -0.193,0.352 -0.272,0.459 -0.077,0.109 -0.272,0.326 -0.432,0.483 -0.16,0.156 -1.857,1.743 -3.771,3.524 -1.916,1.783 -3.483,3.255 -3.483,3.272 0,0.018 0.602,0.683 1.339,1.475 l 1.343,1.441 0.17,-0.056 c 0.093,-0.031 0.304,-0.091 0.471,-0.131 0.164,-0.037 0.462,-0.082 0.656,-0.098 0.196,-0.015 0.509,-0.017 0.696,-0.002 0.185,0.015 0.421,0.043 0.524,0.065 0.105,0.018 0.314,0.073 0.467,0.119 0.153,0.047 0.395,0.137 0.537,0.2 l 0.256,0.118 0.152,-0.152 0.151,-0.15 -0.207,-0.222 c -0.115,-0.122 -0.278,-0.33 -0.361,-0.459 -0.086,-0.13 -0.196,-0.346 -0.245,-0.478 -0.049,-0.132 -0.112,-0.349 -0.136,-0.484 -0.028,-0.132 -0.048,-0.365 -0.048,-0.52 0,-0.151 0.022,-0.39 0.054,-0.53 0.029,-0.139 0.095,-0.359 0.149,-0.489 0.054,-0.131 0.157,-0.33 0.23,-0.443 0.083,-0.131 0.49,-0.566 1.107,-1.187 0.536,-0.54 1.064,-1.046 1.174,-1.125 0.109,-0.079 0.31,-0.194 0.444,-0.259 0.132,-0.066 0.359,-0.146 0.507,-0.184 0.183,-0.048 0.369,-0.068 0.622,-0.07 0.256,-0.002 0.445,0.018 0.647,0.068 0.157,0.037 0.382,0.111 0.498,0.163 0.116,0.053 0.305,0.158 0.42,0.236 0.137,0.089 1.008,0.938 2.544,2.476 1.753,1.756 2.375,2.393 2.49,2.57 0.084,0.129 0.191,0.32 0.236,0.425 0.047,0.104 0.115,0.316 0.153,0.473 0.056,0.235 0.063,0.351 0.051,0.723 -0.013,0.337 -0.034,0.501 -0.091,0.673 -0.04,0.128 -0.119,0.318 -0.172,0.429 -0.054,0.107 -0.143,0.262 -0.2,0.345 -0.052,0.081 -0.52,0.574 -1.037,1.094 -0.517,0.521 -1.021,1.011 -1.121,1.09 -0.099,0.074 -0.261,0.186 -0.362,0.241 -0.101,0.057 -0.271,0.135 -0.377,0.172 -0.11,0.036 -0.305,0.088 -0.438,0.115 -0.132,0.026 -0.355,0.047 -0.496,0.047 -0.142,0 -0.367,-0.021 -0.499,-0.047 -0.132,-0.025 -0.351,-0.087 -0.483,-0.136 -0.133,-0.05 -0.355,-0.164 -0.493,-0.254 -0.152,-0.1 -0.455,-0.364 -0.769,-0.674 l -0.519,-0.515 -0.305,0.307 0.117,0.256 c 0.063,0.143 0.154,0.381 0.203,0.533 0.048,0.15 0.11,0.41 0.139,0.573 0.034,0.184 0.054,0.482 0.054,0.763 0,0.285 -0.02,0.577 -0.055,0.772 -0.031,0.169 -0.105,0.461 -0.166,0.644 -0.062,0.183 -0.174,0.457 -0.249,0.607 -0.076,0.152 -0.21,0.378 -0.295,0.506 -0.085,0.126 -0.28,0.369 -0.433,0.541 -0.155,0.172 -0.753,0.779 -1.329,1.349 -0.575,0.57 -1.139,1.107 -1.25,1.191 -0.111,0.085 -0.313,0.221 -0.447,0.3 -0.135,0.079 -0.361,0.195 -0.505,0.259 -0.146,0.064 -0.365,0.145 -0.49,0.182 -0.124,0.038 -0.359,0.091 -0.523,0.123 -0.205,0.041 -0.449,0.058 -0.806,0.058 -0.388,-0.002 -0.584,-0.018 -0.835,-0.07 -0.182,-0.04 -0.425,-0.105 -0.542,-0.142 -0.118,-0.038 -0.33,-0.122 -0.471,-0.186 l -0.258,-0.116 -0.321,0.317 0.585,0.594 0.585,0.595 0.137,0.278 c 0.101,0.202 0.149,0.353 0.175,0.547 0.028,0.198 0.03,0.328 0.003,0.492 -0.019,0.123 -0.067,0.306 -0.103,0.41 -0.039,0.1 -0.118,0.256 -0.174,0.346 -0.058,0.087 -1.452,1.505 -3.096,3.153 -1.828,1.828 -3.064,3.04 -3.175,3.112 -0.101,0.066 -0.272,0.151 -0.38,0.189 -0.146,0.055 -0.283,0.075 -0.556,0.082 z m 8.854,-30.939 c 0.224,0.004 0.451,-0.016 0.649,-0.058 0.164,-0.034 0.421,-0.116 0.567,-0.177 0.147,-0.065 0.349,-0.167 0.449,-0.227 0.103,-0.06 0.307,-0.225 0.461,-0.369 0.154,-0.143 0.341,-0.35 0.419,-0.461 0.076,-0.107 0.193,-0.302 0.256,-0.428 0.062,-0.127 0.144,-0.326 0.183,-0.445 0.039,-0.116 0.086,-0.305 0.106,-0.418 0.024,-0.128 0.032,-0.374 0.023,-0.656 -0.012,-0.361 -0.035,-0.513 -0.106,-0.749 -0.047,-0.161 -0.154,-0.42 -0.234,-0.574 -0.082,-0.153 -0.209,-0.357 -0.282,-0.45 C 9.91,-52.617 9.75,-52.787 9.628,-52.903 9.503,-53.021 9.281,-53.19 9.132,-53.281 8.983,-53.372 8.736,-53.494 8.585,-53.549 8.431,-53.604 8.17,-53.673 8.006,-53.7 c -0.213,-0.037 -0.402,-0.049 -0.647,-0.036 -0.19,0.011 -0.462,0.049 -0.603,0.087 -0.144,0.037 -0.373,0.117 -0.512,0.174 -0.137,0.06 -0.337,0.166 -0.445,0.239 -0.108,0.071 -0.313,0.24 -0.453,0.374 -0.143,0.134 -0.338,0.369 -0.439,0.518 -0.1,0.152 -0.225,0.377 -0.277,0.499 -0.052,0.124 -0.126,0.359 -0.167,0.517 -0.053,0.224 -0.071,0.39 -0.069,0.702 0,0.256 0.021,0.502 0.054,0.65 0.029,0.131 0.096,0.35 0.15,0.487 0.052,0.133 0.155,0.344 0.227,0.466 0.072,0.123 0.214,0.32 0.316,0.44 0.101,0.122 0.305,0.312 0.453,0.422 0.144,0.11 0.378,0.257 0.513,0.327 0.141,0.07 0.36,0.158 0.489,0.196 0.126,0.039 0.302,0.084 0.391,0.098 0.086,0.017 0.315,0.029 0.504,0.031 m -16.27,-1.021 -2.735,2.732 -1.238,-1.16 2.787,-2.786 c 2.161,-2.16 2.795,-2.777 2.824,-2.745 0.021,0.022 0.277,0.297 0.567,0.611 0.291,0.315 0.531,0.58 0.531,0.59 0,0.013 -1.232,1.253 -2.736,2.758"
             style="fill:#97988c;fill-opacity:1;fill-rule:nonzero;stroke:none"
             id="path1280" />
        </g>
      </g>
    </g>
  </g>
</svg>
