<?xml version="1.0" encoding="UTF-8" standalone="no"?>
<!-- Created with Inkscape (http://www.inkscape.org/) -->

<svg
   version="1.1"
   id="svg148"
   width="512"
   height="512"
   viewBox="0 0 511.99999 511.99999"
   sodipodi:docname="logomark.svg"
   xmlns:inkscape="http://www.inkscape.org/namespaces/inkscape"
   xmlns:sodipodi="http://sodipodi.sourceforge.net/DTD/sodipodi-0.dtd"
   xmlns="http://www.w3.org/2000/svg"
   xmlns:svg="http://www.w3.org/2000/svg">
  <defs
     id="defs152">
    <clipPath
       clipPathUnits="userSpaceOnUse"
       id="clipPath178">
      <path
         d="M 0,1080 H 1413.02 V 0 H 0 Z"
         id="path176" />
    </clipPath>
  </defs>
  <sodipodi:namedview
     id="namedview150"
     pagecolor="#505050"
     bordercolor="#ffffff"
     borderopacity="1"
     inkscape:showpageshadow="0"
     inkscape:pageopacity="0"
     inkscape:pagecheckerboard="1"
     inkscape:deskcolor="#505050"
     showgrid="false" />
  <g
     id="g156"
     inkscape:groupmode="layer"
     inkscape:label="Page 1"
     transform="matrix(1.3333333,0,0,-1.3333333,-789.80879,1015.8391)">
    <g
       id="g172"
       transform="matrix(1.6876822,0,0,1.6876822,-403.95747,-523.93078)">
      <g
         id="g174"
         clip-path="url(#clipPath178)">
        <g
           id="g180"
           transform="translate(706.8096,761.8623)">
          <path
             d="m 0,0 h -25.653 v -8.591 l -0.007,-8.599 -22.911,-13.231 c -12.606,-7.276 -23.174,-13.371 -23.48,-13.549 l -0.567,-0.319 -3.802,2.13 c -2.093,1.171 -5.804,3.248 -8.248,4.618 -2.444,1.364 -4.525,2.502 -4.624,2.53 -0.144,0.037 -2.436,-3.992 -12.642,-22.223 -6.861,-12.25 -12.482,-22.32 -12.492,-22.385 -0.017,-0.06 3.717,-2.201 8.29,-4.757 l 8.318,-4.644 v -47.639 l -8.318,-4.651 c -4.573,-2.555 -8.317,-4.669 -8.317,-4.703 0,-0.026 5.62,-10.102 12.497,-22.384 6.877,-12.288 12.531,-22.337 12.574,-22.337 0.037,0 3.463,1.899 7.611,4.224 l 7.541,4.219 0.322,-0.184 c 0.179,-0.102 11.107,-6.415 24.284,-14.019 l 23.964,-13.836 v -8.592 l 0.007,-8.592 h 51.317 v 20.292 l 9.197,5.307 c 5.059,2.918 10.998,6.348 13.204,7.627 2.206,1.273 7.686,4.439 12.18,7.028 4.487,2.595 8.269,4.768 8.393,4.833 l 0.226,0.119 7.53,-4.213 c 4.142,-2.314 7.562,-4.213 7.594,-4.213 0.038,0 5.691,10.056 12.568,22.342 6.872,12.283 12.498,22.358 12.498,22.385 0,0.033 -3.743,2.147 -8.318,4.702 l -8.317,4.646 v 47.634 l 8.317,4.649 c 4.575,2.556 8.307,4.697 8.291,4.757 -0.011,0.059 -5.631,10.135 -12.492,22.385 -9.877,17.638 -12.503,22.26 -12.639,22.228 -0.091,-0.027 -3.856,-2.11 -8.371,-4.634 -4.509,-2.524 -8.252,-4.589 -8.312,-4.589 -0.064,0 -1.127,0.582 -2.362,1.304 -1.241,0.718 -5.049,2.919 -8.469,4.892 -3.414,1.97 -6.796,3.922 -7.513,4.338 -0.718,0.415 -4.035,2.331 -7.368,4.255 -3.334,1.926 -8.264,4.774 -10.95,6.322 l -4.887,2.821 V 0.017 Z m -3.108,-25.778 c 1.134,0.012 3.027,-0.026 4.214,-0.085 1.186,-0.054 2.918,-0.167 3.856,-0.249 0.939,-0.08 2.449,-0.238 3.361,-0.356 0.906,-0.113 2.454,-0.34 3.436,-0.501 0.987,-0.162 2.562,-0.459 3.511,-0.654 0.944,-0.193 2.444,-0.532 3.323,-0.753 0.885,-0.223 2.239,-0.578 3.01,-0.804 0.771,-0.223 2.103,-0.627 2.955,-0.907 0.858,-0.28 2.32,-0.793 3.258,-1.132 0.939,-0.351 2.109,-0.799 2.605,-1.005 0.497,-0.204 1.532,-0.646 2.304,-0.981 0.776,-0.34 2.373,-1.095 3.56,-1.682 1.187,-0.583 2.783,-1.414 3.549,-1.839 0.766,-0.427 1.963,-1.112 2.659,-1.533 0.691,-0.414 2.049,-1.273 3.015,-1.909 0.966,-0.632 2.384,-1.608 3.156,-2.163 0.771,-0.556 1.898,-1.392 2.508,-1.866 0.604,-0.469 1.64,-1.305 2.303,-1.856 0.664,-0.551 1.813,-1.536 2.557,-2.195 0.744,-0.659 2.346,-2.195 3.554,-3.409 1.214,-1.219 2.822,-2.913 3.571,-3.77 0.75,-0.852 1.807,-2.093 2.346,-2.756 0.545,-0.659 1.597,-2.012 2.336,-3.005 0.744,-0.993 1.964,-2.73 2.713,-3.862 0.755,-1.127 1.732,-2.659 2.179,-3.404 0.443,-0.75 1.16,-1.984 1.592,-2.756 0.431,-0.776 1.261,-2.373 1.849,-3.56 0.583,-1.186 1.344,-2.79 1.683,-3.565 0.34,-0.778 0.955,-2.266 1.365,-3.313 0.41,-1.04 1.025,-2.707 1.365,-3.699 0.339,-0.993 0.857,-2.643 1.154,-3.664 0.297,-1.024 0.707,-2.512 0.907,-3.311 0.199,-0.793 0.539,-2.297 0.76,-3.339 0.216,-1.046 0.523,-2.691 0.685,-3.656 0.157,-0.972 0.383,-2.509 0.496,-3.42 0.113,-0.907 0.276,-2.417 0.356,-3.356 0.087,-0.937 0.205,-3.048 0.275,-4.687 0.092,-2.319 0.092,-3.646 0,-5.961 -0.07,-1.638 -0.188,-3.747 -0.275,-4.686 -0.08,-0.939 -0.243,-2.45 -0.356,-3.361 -0.113,-0.906 -0.339,-2.442 -0.496,-3.413 -0.162,-0.967 -0.469,-2.611 -0.685,-3.658 -0.221,-1.041 -0.561,-2.546 -0.76,-3.338 -0.2,-0.799 -0.61,-2.288 -0.907,-3.313 -0.297,-1.024 -0.815,-2.675 -1.154,-3.667 -0.34,-0.993 -0.955,-2.654 -1.365,-3.695 -0.41,-1.046 -1.025,-2.535 -1.365,-3.313 -0.339,-0.776 -1.1,-2.377 -1.683,-3.565 -0.588,-1.186 -1.397,-2.74 -1.796,-3.458 -0.398,-0.716 -1.116,-1.958 -1.591,-2.755 -0.474,-0.799 -1.478,-2.378 -2.233,-3.507 -0.749,-1.133 -1.969,-2.869 -2.713,-3.862 -0.739,-0.991 -1.791,-2.346 -2.336,-3.003 -0.539,-0.664 -1.596,-1.904 -2.346,-2.758 -0.749,-0.858 -2.4,-2.593 -3.668,-3.861 -1.267,-1.267 -3.004,-2.919 -3.862,-3.669 -0.852,-0.75 -2.092,-1.8 -2.756,-2.345 -0.658,-0.545 -2.012,-1.596 -3.004,-2.335 -0.993,-0.739 -2.73,-1.965 -3.857,-2.714 -1.133,-0.755 -2.708,-1.759 -3.511,-2.233 -0.799,-0.475 -2.04,-1.193 -2.757,-1.592 -0.712,-0.398 -2.27,-1.208 -3.457,-1.79 -1.187,-0.587 -2.784,-1.343 -3.56,-1.682 -0.772,-0.334 -1.807,-0.778 -2.304,-0.982 -0.496,-0.206 -1.666,-0.653 -2.605,-1.004 -0.938,-0.34 -2.4,-0.852 -3.258,-1.133 -0.852,-0.274 -2.184,-0.684 -2.955,-0.905 -0.771,-0.223 -2.125,-0.583 -3.01,-0.804 -0.879,-0.222 -2.389,-0.567 -3.355,-0.761 -0.966,-0.201 -2.541,-0.492 -3.506,-0.653 -0.966,-0.156 -2.503,-0.382 -3.409,-0.496 -0.912,-0.113 -2.401,-0.274 -3.306,-0.356 -0.913,-0.082 -3.032,-0.2 -4.715,-0.269 -2.379,-0.098 -3.71,-0.098 -6.013,-0.006 -1.625,0.065 -3.724,0.188 -4.661,0.269 -0.934,0.088 -2.449,0.249 -3.356,0.362 -0.911,0.114 -2.557,0.357 -3.661,0.544 -1.101,0.184 -2.752,0.498 -3.67,0.691 -0.91,0.189 -2.297,0.512 -3.079,0.707 -0.781,0.194 -2.271,0.605 -3.307,0.905 -1.041,0.298 -2.788,0.858 -3.883,1.236 -1.1,0.378 -2.854,1.031 -3.899,1.447 -1.047,0.414 -2.719,1.121 -3.712,1.573 -0.993,0.449 -2.793,1.328 -4.007,1.947 -1.214,0.627 -2.973,1.587 -3.911,2.131 -0.933,0.551 -2.082,1.242 -2.551,1.533 -0.47,0.297 -1.618,1.052 -2.556,1.687 -0.939,0.632 -2.487,1.737 -3.443,2.449 -0.959,0.717 -2.264,1.732 -2.906,2.262 -0.643,0.527 -1.868,1.567 -2.725,2.317 -0.852,0.75 -2.545,2.352 -3.764,3.566 -1.219,1.214 -2.752,2.815 -3.409,3.56 -0.664,0.745 -1.65,1.894 -2.201,2.557 -0.55,0.663 -1.387,1.699 -1.856,2.303 -0.468,0.609 -1.31,1.737 -1.866,2.508 -0.555,0.772 -1.531,2.19 -2.163,3.156 -0.631,0.965 -1.489,2.32 -1.903,3.01 -0.41,0.684 -1.101,1.883 -1.532,2.653 -0.426,0.772 -1.263,2.374 -1.845,3.56 -0.589,1.188 -1.343,2.784 -1.679,3.554 -0.339,0.772 -0.781,1.813 -0.985,2.309 -0.206,0.498 -0.573,1.44 -0.821,2.104 -0.248,0.664 -0.669,1.857 -0.944,2.655 -0.275,0.803 -0.702,2.125 -0.949,2.943 -0.248,0.821 -0.717,2.536 -1.041,3.809 -0.325,1.278 -0.772,3.247 -0.992,4.375 -0.222,1.133 -0.518,2.8 -0.659,3.711 -0.14,0.906 -0.34,2.416 -0.453,3.354 -0.108,0.939 -0.27,2.628 -0.351,3.76 -0.086,1.133 -0.182,3.274 -0.215,4.762 -0.038,1.593 -0.017,3.733 0.053,5.211 0.06,1.376 0.184,3.269 0.266,4.209 0.086,0.937 0.242,2.404 0.35,3.257 0.109,0.858 0.313,2.275 0.454,3.16 0.145,0.88 0.436,2.482 0.656,3.555 0.221,1.079 0.578,2.676 0.799,3.56 0.222,0.879 0.582,2.234 0.803,3.004 0.223,0.772 0.631,2.105 0.908,2.957 0.279,0.857 0.792,2.323 1.137,3.257 0.345,0.939 0.793,2.114 0.999,2.611 0.204,0.49 0.646,1.531 0.985,2.303 0.336,0.77 1.074,2.341 1.641,3.49 0.572,1.149 1.311,2.589 1.65,3.209 0.334,0.616 1.069,1.883 1.624,2.821 0.555,0.939 1.672,2.697 2.481,3.911 0.809,1.214 1.99,2.897 2.627,3.737 0.636,0.849 1.694,2.202 2.351,3.011 0.664,0.809 1.78,2.125 2.482,2.923 0.707,0.798 2.303,2.47 3.549,3.711 1.241,1.241 2.961,2.864 3.813,3.615 0.857,0.749 2.094,1.807 2.756,2.351 0.664,0.54 2.017,1.59 3.011,2.331 0.992,0.744 2.724,1.962 3.856,2.717 1.132,0.75 2.708,1.753 3.506,2.229 0.804,0.48 2.072,1.208 2.821,1.622 0.755,0.416 2.099,1.117 2.983,1.565 0.891,0.441 2.368,1.149 3.295,1.569 0.923,0.416 2.455,1.074 3.405,1.453 0.948,0.376 2.555,0.981 3.565,1.336 1.019,0.356 2.584,0.874 3.489,1.148 0.9,0.277 2.525,0.729 3.599,1.005 1.073,0.28 2.831,0.69 3.905,0.911 1.073,0.227 2.767,0.54 3.758,0.707 0.994,0.161 2.521,0.383 3.383,0.49 0.869,0.108 2.421,0.271 3.448,0.362 1.024,0.087 2.594,0.195 3.483,0.237 0.891,0.043 2.541,0.086 3.672,0.091 z m 0.054,-6.817 c -1.488,-0.005 -2.955,-0.028 -3.257,-0.048 -0.303,-0.017 -1.293,-0.076 -2.207,-0.135 -0.91,-0.06 -2.422,-0.2 -3.359,-0.308 -0.934,-0.108 -2.445,-0.308 -3.355,-0.448 -0.912,-0.139 -2.557,-0.43 -3.657,-0.652 -1.106,-0.222 -2.886,-0.627 -3.959,-0.901 -1.079,-0.275 -2.767,-0.756 -3.76,-1.057 -0.992,-0.308 -2.617,-0.848 -3.608,-1.208 -0.993,-0.362 -2.303,-0.858 -2.908,-1.106 -0.604,-0.249 -1.575,-0.658 -2.151,-0.905 -0.583,-0.249 -1.824,-0.826 -2.762,-1.273 -0.933,-0.454 -2.472,-1.242 -3.403,-1.754 -0.94,-0.518 -2.272,-1.273 -2.957,-1.684 -0.691,-0.414 -2.088,-1.304 -3.113,-1.979 -1.019,-0.675 -2.394,-1.623 -3.053,-2.11 -0.662,-0.484 -1.946,-1.471 -2.858,-2.199 -0.906,-0.73 -2.239,-1.839 -2.956,-2.465 -0.717,-0.627 -2.39,-2.223 -3.717,-3.544 -1.321,-1.327 -2.917,-2.999 -3.544,-3.716 -0.626,-0.718 -1.73,-2.045 -2.459,-2.956 -0.728,-0.912 -1.656,-2.103 -2.06,-2.654 -0.405,-0.551 -1.24,-1.747 -1.856,-2.66 -0.62,-0.906 -1.494,-2.259 -1.953,-3.003 -0.458,-0.744 -1.207,-2.035 -1.672,-2.86 -0.464,-0.824 -1.332,-2.497 -1.93,-3.705 -0.599,-1.214 -1.424,-2.993 -1.834,-3.959 -0.41,-0.967 -1.009,-2.455 -1.327,-3.312 -0.319,-0.852 -0.729,-2.001 -0.917,-2.556 -0.189,-0.551 -0.54,-1.651 -0.783,-2.455 -0.243,-0.799 -0.646,-2.239 -0.895,-3.204 -0.253,-0.965 -0.614,-2.504 -0.803,-3.409 -0.189,-0.912 -0.486,-2.465 -0.648,-3.458 -0.167,-0.993 -0.394,-2.55 -0.507,-3.458 -0.108,-0.91 -0.248,-2.173 -0.302,-2.809 -0.059,-0.631 -0.151,-1.985 -0.204,-3.005 -0.054,-1.019 -0.104,-2.912 -0.104,-4.212 0,-1.295 0.05,-3.188 0.104,-4.207 0.053,-1.021 0.145,-2.374 0.204,-3.01 0.054,-0.631 0.194,-1.894 0.302,-2.805 0.113,-0.905 0.34,-2.465 0.507,-3.458 0.162,-0.992 0.453,-2.535 0.642,-3.43 0.189,-0.89 0.459,-2.088 0.604,-2.653 0.14,-0.567 0.458,-1.749 0.701,-2.617 0.248,-0.874 0.611,-2.088 0.809,-2.708 0.194,-0.615 0.696,-2.038 1.106,-3.156 0.411,-1.12 1.089,-2.837 1.505,-3.807 0.416,-0.977 1.128,-2.536 1.58,-3.473 0.453,-0.939 1.241,-2.476 1.753,-3.415 0.518,-0.934 1.274,-2.267 1.688,-2.957 0.41,-0.684 1.301,-2.086 1.975,-3.107 0.679,-1.018 1.629,-2.394 2.11,-3.059 0.485,-0.656 1.471,-1.94 2.205,-2.852 0.729,-0.911 1.833,-2.238 2.459,-2.956 0.627,-0.717 2.223,-2.389 3.544,-3.716 1.327,-1.327 3,-2.918 3.717,-3.543 0.717,-0.626 2.05,-1.732 2.956,-2.461 0.912,-0.728 2.097,-1.65 2.637,-2.049 0.54,-0.394 1.667,-1.186 2.508,-1.758 0.837,-0.568 2.175,-1.44 2.973,-1.932 0.803,-0.496 2.201,-1.316 3.106,-1.822 0.912,-0.513 2.601,-1.392 3.759,-1.964 1.16,-0.567 2.736,-1.3 3.507,-1.635 0.777,-0.323 1.926,-0.798 2.556,-1.05 0.637,-0.25 1.873,-0.708 2.757,-1.021 0.879,-0.312 2.341,-0.793 3.259,-1.068 0.911,-0.274 2.42,-0.696 3.359,-0.938 0.934,-0.243 2.45,-0.598 3.362,-0.793 0.91,-0.195 2.49,-0.49 3.505,-0.659 1.019,-0.167 2.555,-0.388 3.414,-0.495 0.863,-0.108 2.487,-0.275 3.609,-0.377 1.559,-0.136 3.09,-0.173 6.407,-0.179 2.676,0 4.92,0.048 5.81,0.125 0.804,0.069 2.109,0.193 2.907,0.28 0.799,0.086 2.244,0.269 3.21,0.405 0.965,0.14 2.567,0.41 3.554,0.603 0.993,0.194 2.551,0.529 3.463,0.75 0.906,0.215 2.519,0.642 3.576,0.944 1.063,0.306 2.729,0.825 3.711,1.16 0.982,0.334 2.562,0.922 3.517,1.299 0.955,0.383 2.373,0.972 3.156,1.311 0.781,0.339 2.459,1.149 3.726,1.796 1.268,0.642 2.736,1.413 3.259,1.716 0.522,0.301 1.537,0.901 2.254,1.332 0.718,0.431 2.136,1.349 3.161,2.034 1.02,0.69 2.481,1.726 3.258,2.309 0.771,0.58 1.958,1.503 2.638,2.054 0.679,0.55 1.806,1.5 2.502,2.109 0.701,0.61 2.336,2.173 3.636,3.468 1.295,1.3 2.928,3.014 3.624,3.815 0.691,0.798 1.662,1.946 2.158,2.556 0.491,0.604 1.365,1.731 1.942,2.503 0.582,0.771 1.483,2.038 2.012,2.81 0.528,0.77 1.283,1.919 1.683,2.556 0.399,0.631 1.154,1.893 1.683,2.806 0.523,0.91 1.413,2.556 1.969,3.656 0.56,1.1 1.283,2.589 1.607,3.308 0.318,0.716 0.954,2.232 1.413,3.37 0.453,1.132 1.144,3.004 1.532,4.159 0.383,1.148 0.911,2.83 1.165,3.732 0.259,0.906 0.663,2.482 0.906,3.511 0.237,1.025 0.571,2.59 0.739,3.469 0.162,0.884 0.41,2.372 0.551,3.306 0.134,0.938 0.339,2.632 0.452,3.761 0.114,1.131 0.249,2.912 0.308,3.958 0.054,1.047 0.102,2.945 0.102,4.213 0,1.268 -0.048,3.09 -0.097,4.056 -0.059,0.964 -0.151,2.319 -0.21,3.01 -0.06,0.69 -0.195,1.996 -0.307,2.906 -0.108,0.908 -0.357,2.58 -0.545,3.707 -0.195,1.132 -0.508,2.778 -0.702,3.656 -0.194,0.885 -0.534,2.289 -0.749,3.112 -0.21,0.831 -0.637,2.325 -0.939,3.319 -0.302,0.996 -0.842,2.615 -1.203,3.602 -0.356,0.987 -0.917,2.454 -1.246,3.252 -0.329,0.803 -0.858,2.045 -1.176,2.758 -0.318,0.717 -1.041,2.199 -1.601,3.305 -0.556,1.101 -1.446,2.746 -1.969,3.658 -0.529,0.906 -1.284,2.173 -1.683,2.804 -0.4,0.637 -1.155,1.786 -1.683,2.556 -0.523,0.772 -1.43,2.034 -2.006,2.806 -0.583,0.771 -1.495,1.947 -2.034,2.61 -0.539,0.67 -1.511,1.819 -2.158,2.557 -0.647,0.744 -2.238,2.411 -3.538,3.705 -1.3,1.301 -2.951,2.875 -3.668,3.502 -0.717,0.626 -2.045,1.73 -2.956,2.465 -0.906,0.728 -2.239,1.746 -2.956,2.27 -0.717,0.524 -1.985,1.408 -2.821,1.964 -0.836,0.555 -2.303,1.482 -3.257,2.06 -0.955,0.571 -2.482,1.434 -3.383,1.921 -0.906,0.484 -2.341,1.213 -3.198,1.624 -0.853,0.404 -2.276,1.05 -3.167,1.434 -0.89,0.377 -2.222,0.922 -2.96,1.203 -0.74,0.285 -2.007,0.739 -2.806,1.013 -0.803,0.275 -2.292,0.744 -3.317,1.042 -1.019,0.296 -2.508,0.701 -3.306,0.9 -0.798,0.205 -2.444,0.568 -3.657,0.805 -1.214,0.241 -2.994,0.549 -3.959,0.69 -0.966,0.14 -2.66,0.346 -3.76,0.458 -1.1,0.114 -2.859,0.248 -3.911,0.301 -1.046,0.054 -3.117,0.094 -4.607,0.082 m 1.101,-4.352 c 0.604,-0.022 1.85,-0.059 2.762,-0.087 0.912,-0.028 2.4,-0.119 3.306,-0.204 0.907,-0.082 2.212,-0.218 2.903,-0.303 0.69,-0.087 2.162,-0.313 3.274,-0.501 1.11,-0.184 2.734,-0.497 3.608,-0.691 0.873,-0.194 2.444,-0.582 3.49,-0.863 1.052,-0.276 2.897,-0.836 4.11,-1.241 1.213,-0.404 2.951,-1.024 3.862,-1.386 0.907,-0.357 2.314,-0.944 3.117,-1.305 0.81,-0.368 2.331,-1.09 3.377,-1.618 1.052,-0.524 2.649,-1.376 3.55,-1.894 0.895,-0.518 2.152,-1.267 2.783,-1.667 0.636,-0.404 1.715,-1.117 2.405,-1.586 0.691,-0.474 1.683,-1.175 2.207,-1.558 0.523,-0.389 1.596,-1.219 2.389,-1.844 0.793,-0.631 2.142,-1.771 3.004,-2.53 0.864,-0.761 2.482,-2.297 3.593,-3.42 1.116,-1.127 2.486,-2.562 3.042,-3.198 0.567,-0.632 1.618,-1.899 2.352,-2.806 0.728,-0.912 1.72,-2.195 2.206,-2.859 0.48,-0.659 1.386,-1.969 2.007,-2.906 0.62,-0.934 1.397,-2.153 1.726,-2.703 0.328,-0.556 0.917,-1.57 1.31,-2.266 0.388,-0.696 1.1,-2.049 1.581,-3.01 0.48,-0.96 1.159,-2.395 1.515,-3.192 0.356,-0.804 0.896,-2.088 1.203,-2.854 0.302,-0.771 0.777,-2.033 1.052,-2.805 0.27,-0.776 0.739,-2.207 1.03,-3.177 0.297,-0.971 0.744,-2.573 0.993,-3.56 0.248,-0.987 0.587,-2.493 0.76,-3.345 0.173,-0.851 0.42,-2.227 0.556,-3.053 0.134,-0.83 0.334,-2.249 0.447,-3.161 0.108,-0.905 0.27,-2.594 0.356,-3.743 0.092,-1.282 0.151,-3.393 0.151,-5.473 0,-2.104 -0.059,-4.187 -0.156,-5.481 -0.086,-1.149 -0.243,-2.832 -0.356,-3.743 -0.108,-0.906 -0.286,-2.218 -0.394,-2.909 -0.113,-0.685 -0.361,-2.066 -0.561,-3.057 -0.194,-0.992 -0.577,-2.681 -0.852,-3.755 -0.275,-1.077 -0.745,-2.761 -1.047,-3.748 -0.307,-0.987 -0.862,-2.632 -1.24,-3.662 -0.377,-1.035 -1.035,-2.708 -1.467,-3.723 -0.432,-1.019 -1.37,-3.02 -2.098,-4.454 -0.723,-1.435 -1.71,-3.279 -2.196,-4.1 -0.485,-0.826 -1.289,-2.131 -1.779,-2.897 -0.491,-0.77 -1.392,-2.103 -2.012,-2.966 -0.615,-0.858 -1.538,-2.1 -2.05,-2.757 -0.507,-0.658 -1.527,-1.898 -2.261,-2.756 -0.733,-0.857 -2.232,-2.481 -3.333,-3.609 -1.105,-1.122 -2.686,-2.658 -3.517,-3.408 -0.831,-0.749 -2.092,-1.839 -2.804,-2.422 -0.712,-0.583 -1.84,-1.467 -2.497,-1.964 -0.664,-0.495 -1.856,-1.359 -2.66,-1.915 -0.798,-0.549 -2.228,-1.482 -3.182,-2.071 -0.949,-0.583 -2.39,-1.429 -3.204,-1.882 -0.815,-0.447 -2.384,-1.256 -3.485,-1.796 -1.1,-0.535 -2.794,-1.311 -3.759,-1.715 -0.966,-0.411 -2.638,-1.069 -3.717,-1.457 -1.078,-0.393 -2.724,-0.943 -3.657,-1.229 -0.933,-0.282 -2.562,-0.735 -3.62,-0.999 -1.056,-0.269 -2.842,-0.667 -3.958,-0.89 -1.122,-0.221 -2.827,-0.518 -3.792,-0.652 -0.961,-0.141 -2.427,-0.319 -3.258,-0.398 -0.825,-0.088 -2.304,-0.206 -3.285,-0.272 -1.138,-0.074 -3.204,-0.096 -5.761,-0.059 -2.373,0.033 -4.628,0.113 -5.577,0.206 -0.879,0.085 -1.786,0.178 -2.006,0.21 -0.227,0.027 -0.929,0.119 -1.559,0.206 -0.637,0.085 -1.715,0.246 -2.405,0.359 -0.691,0.114 -2.088,0.379 -3.107,0.589 -1.021,0.215 -2.552,0.572 -3.41,0.792 -0.851,0.222 -2.164,0.589 -2.908,0.816 -0.744,0.226 -1.509,0.463 -1.704,0.517 -0.19,0.06 -1.159,0.393 -2.152,0.756 -0.992,0.355 -2.438,0.911 -3.209,1.23 -0.771,0.318 -1.991,0.852 -2.708,1.18 -0.711,0.329 -1.888,0.891 -2.604,1.251 -0.718,0.357 -2.04,1.064 -2.934,1.565 -0.902,0.501 -2.363,1.37 -3.259,1.932 -0.895,0.555 -2.211,1.423 -2.929,1.919 -0.717,0.503 -1.845,1.312 -2.502,1.813 -0.664,0.496 -1.544,1.17 -1.958,1.506 -0.41,0.328 -1.403,1.169 -2.202,1.859 -0.797,0.691 -2.351,2.136 -3.446,3.21 -1.096,1.073 -2.541,2.567 -3.209,3.306 -0.669,0.75 -1.468,1.65 -1.771,2.007 -0.306,0.361 -0.829,0.993 -1.16,1.402 -0.333,0.416 -1.089,1.398 -1.681,2.184 -0.594,0.789 -1.624,2.256 -2.298,3.259 -0.675,1.003 -1.612,2.481 -2.083,3.279 -0.474,0.798 -1.1,1.882 -1.391,2.405 -0.297,0.524 -0.992,1.884 -1.559,3.022 -0.561,1.138 -1.37,2.891 -1.797,3.9 -0.424,1.009 -1.084,2.676 -1.46,3.706 -0.384,1.035 -0.939,2.68 -1.242,3.667 -0.301,0.987 -0.711,2.4 -0.9,3.144 -0.195,0.744 -0.491,1.943 -0.647,2.659 -0.168,0.713 -0.437,2.067 -0.61,3 -0.167,0.933 -0.421,2.507 -0.551,3.505 -0.139,0.999 -0.323,2.621 -0.414,3.615 -0.087,0.992 -0.195,2.922 -0.226,4.288 -0.039,1.364 -0.039,3.598 0,4.962 0.031,1.359 0.139,3.291 0.226,4.283 0.091,0.993 0.275,2.615 0.414,3.614 0.13,0.998 0.384,2.572 0.551,3.506 0.173,0.933 0.425,2.19 0.561,2.8 0.136,0.609 0.361,1.557 0.496,2.108 0.141,0.55 0.475,1.77 0.744,2.702 0.265,0.94 0.746,2.449 1.058,3.362 0.308,0.905 0.858,2.4 1.219,3.305 0.357,0.912 0.934,2.293 1.284,3.075 0.351,0.777 1.062,2.276 1.591,3.323 0.528,1.052 1.38,2.648 1.899,3.543 0.517,0.902 1.267,2.158 1.666,2.789 0.399,0.637 1.112,1.715 1.586,2.406 0.469,0.69 1.241,1.774 1.705,2.405 0.47,0.632 1.38,1.807 2.028,2.606 0.646,0.798 1.763,2.109 2.475,2.907 0.712,0.799 2.175,2.319 3.242,3.377 1.069,1.056 2.465,2.378 3.095,2.94 0.637,0.56 1.899,1.617 2.812,2.352 0.906,0.727 2.188,1.72 2.853,2.205 0.663,0.48 1.969,1.386 2.907,2.007 0.939,0.621 2.163,1.397 2.718,1.73 0.561,0.336 1.533,0.897 2.168,1.259 0.631,0.36 1.98,1.067 2.994,1.574 1.014,0.506 2.498,1.214 3.296,1.57 0.798,0.356 2.082,0.894 2.854,1.202 0.776,0.308 2.233,0.847 3.247,1.198 1.009,0.35 2.611,0.863 3.553,1.133 0.95,0.269 2.262,0.632 2.924,0.793 0.664,0.167 2.082,0.479 3.157,0.702 1.078,0.221 2.702,0.518 3.608,0.657 0.912,0.141 2.244,0.319 2.956,0.399 0.717,0.081 1.913,0.2 2.658,0.265 0.745,0.069 2.369,0.15 3.61,0.194 1.24,0.038 2.75,0.053 3.354,0.038 m -2.205,-13.605 c -0.696,0.018 -1.268,-0.022 -1.553,-0.102 -0.249,-0.075 -0.626,-0.205 -0.837,-0.296 -0.216,-0.092 -0.68,-0.373 -1.035,-0.626 l -0.643,-0.459 0.065,-2.373 c 0.038,-1.304 0.189,-7.308 0.334,-13.344 0.152,-6.251 0.232,-11.301 0.189,-11.727 -0.043,-0.415 -0.173,-1.068 -0.286,-1.457 -0.118,-0.381 -0.475,-1.338 -0.798,-2.114 -0.328,-0.777 -0.663,-1.677 -0.75,-2.006 -0.091,-0.356 -0.129,-0.749 -0.091,-0.987 0.032,-0.221 0.167,-0.582 0.295,-0.804 0.124,-0.22 1.328,-1.488 2.671,-2.81 2.071,-2.045 2.546,-2.464 3.15,-2.783 0.393,-0.201 1.024,-0.442 1.408,-0.529 0.486,-0.119 0.933,-0.146 1.537,-0.108 0.47,0.028 1.111,0.147 1.424,0.255 0.319,0.107 0.788,0.322 1.052,0.478 0.27,0.153 0.868,0.653 1.343,1.107 l 0.858,0.825 0.485,-0.492 0.486,-0.495 -0.356,-0.782 c -0.194,-0.426 -0.475,-1.154 -0.621,-1.618 -0.145,-0.459 -0.334,-1.253 -0.42,-1.754 -0.097,-0.534 -0.163,-1.483 -0.163,-2.27 -0.004,-0.825 0.06,-1.722 0.163,-2.303 0.091,-0.518 0.264,-1.279 0.382,-1.684 l 0.217,-0.738 -0.497,-0.481 c -0.269,-0.263 -2.4,-2.27 -4.725,-4.459 -2.33,-2.191 -4.277,-3.965 -4.326,-3.95 -0.042,0.022 -1.796,1.629 -3.895,3.577 l -3.801,3.548 0.241,0.761 c 0.135,0.421 0.352,1.197 0.481,1.721 0.135,0.523 0.313,1.374 0.394,1.893 0.081,0.517 0.2,1.607 0.259,2.427 0.081,1.09 0.081,1.899 0,3.015 -0.065,0.842 -0.222,2.121 -0.356,2.849 -0.135,0.729 -0.405,1.838 -0.594,2.475 -0.198,0.637 -0.496,1.51 -0.663,1.942 -0.172,0.432 -0.556,1.279 -0.853,1.889 -0.295,0.603 -0.895,1.639 -1.326,2.303 -0.437,0.663 -1.063,1.542 -1.391,1.953 -0.331,0.414 -0.999,1.168 -1.479,1.677 -0.48,0.507 -1.327,1.294 -1.877,1.753 -0.549,0.458 -1.525,1.181 -2.162,1.612 -0.643,0.427 -1.797,1.09 -2.574,1.468 -0.782,0.383 -1.854,0.858 -2.395,1.051 -0.54,0.2 -1.483,0.492 -2.102,0.648 -0.622,0.161 -1.554,0.367 -2.082,0.452 -0.524,0.088 -1.404,0.206 -1.953,0.26 -0.551,0.054 -1.473,0.097 -2.056,0.097 -0.578,0.005 -1.549,-0.043 -2.153,-0.097 -0.609,-0.059 -1.612,-0.194 -2.226,-0.308 -0.622,-0.108 -1.613,-0.34 -2.207,-0.501 -0.593,-0.168 -1.661,-0.535 -2.368,-0.81 -0.707,-0.28 -1.245,-0.544 -1.203,-0.583 0.049,-0.042 0.782,-0.264 1.64,-0.485 0.853,-0.227 3.576,-0.955 6.057,-1.619 2.476,-0.663 4.536,-1.24 4.575,-1.283 0.037,-0.039 0.911,-3.208 1.936,-7.039 l 1.861,-6.969 -5.135,-5.135 c -2.821,-2.826 -5.189,-5.134 -5.254,-5.134 -0.065,0 -3.215,0.829 -7.001,1.845 -3.786,1.013 -6.921,1.881 -6.958,1.93 -0.043,0.043 -0.815,2.843 -1.715,6.219 -0.902,3.376 -1.672,6.106 -1.705,6.064 -0.038,-0.039 -0.248,-0.524 -0.474,-1.075 -0.222,-0.55 -0.54,-1.455 -0.707,-2.006 -0.173,-0.549 -0.399,-1.413 -0.507,-1.91 -0.113,-0.501 -0.271,-1.44 -0.357,-2.086 -0.092,-0.696 -0.155,-1.943 -0.155,-3.053 0,-1.03 0.049,-2.261 0.103,-2.725 0.059,-0.469 0.198,-1.321 0.306,-1.903 0.113,-0.578 0.362,-1.581 0.551,-2.228 0.188,-0.643 0.484,-1.522 0.651,-1.953 0.173,-0.426 0.574,-1.301 0.891,-1.942 0.323,-0.635 0.776,-1.472 1.014,-1.849 0.237,-0.384 0.815,-1.215 1.284,-1.851 0.48,-0.647 1.446,-1.742 2.212,-2.509 0.75,-0.744 1.812,-1.693 2.366,-2.108 0.551,-0.416 1.431,-1.02 1.954,-1.344 0.522,-0.323 1.537,-0.872 2.265,-1.217 0.724,-0.351 1.915,-0.837 2.654,-1.081 0.739,-0.247 1.867,-0.56 2.508,-0.7 0.641,-0.146 1.79,-0.335 2.556,-0.421 1.037,-0.124 1.872,-0.15 3.292,-0.108 1.224,0.038 2.334,0.129 3.106,0.265 0.663,0.107 1.5,0.274 1.856,0.355 0.361,0.086 1.019,0.264 1.467,0.405 l 0.815,0.243 0.846,-0.874 c 0.469,-0.48 2.006,-2.108 3.42,-3.608 1.418,-1.506 2.573,-2.779 2.573,-2.827 0,-0.053 -2.844,-2.767 -6.317,-6.035 -3.468,-3.27 -6.311,-5.967 -6.311,-5.993 0,-0.034 3.733,-3.786 8.29,-8.35 l 8.297,-8.29 5.48,5.884 c 3.016,3.241 5.609,6.009 5.761,6.155 l 0.285,0.27 10.664,-11.344 c 5.869,-6.235 10.945,-11.58 11.279,-11.877 0.334,-0.292 0.944,-0.735 1.354,-0.971 0.41,-0.243 1.111,-0.573 1.559,-0.735 0.442,-0.161 1.278,-0.371 1.85,-0.469 0.798,-0.134 1.338,-0.162 2.254,-0.113 0.664,0.038 1.527,0.13 1.91,0.217 0.389,0.079 1.062,0.264 1.505,0.41 0.442,0.139 1.251,0.473 1.802,0.744 0.555,0.264 1.402,0.765 1.887,1.11 0.485,0.345 1.252,1.021 1.704,1.494 0.448,0.481 1.037,1.236 1.306,1.679 0.264,0.446 0.658,1.235 0.874,1.758 0.215,0.523 0.501,1.396 0.636,1.941 0.14,0.545 0.303,1.419 0.367,1.942 0.07,0.551 0.092,1.522 0.059,2.303 -0.027,0.745 -0.123,1.695 -0.21,2.105 -0.086,0.414 -0.259,1.045 -0.372,1.402 -0.119,0.361 -0.394,1.014 -0.615,1.456 -0.216,0.442 -0.588,1.074 -0.825,1.402 -0.238,0.329 -0.831,0.993 -1.317,1.472 -0.49,0.476 -5.668,5.315 -11.51,10.751 -5.847,5.438 -10.626,9.93 -10.626,9.984 0,0.054 1.839,2.081 4.089,4.498 l 4.094,4.402 0.517,-0.178 c 0.286,-0.096 0.933,-0.275 1.441,-0.394 0.501,-0.118 1.407,-0.254 2.001,-0.302 0.598,-0.048 1.553,-0.054 2.119,-0.005 0.567,0.042 1.289,0.129 1.603,0.195 0.318,0.059 0.959,0.225 1.424,0.365 0.469,0.141 1.208,0.416 1.639,0.61 l 0.782,0.361 0.464,-0.462 0.459,-0.464 -0.631,-0.676 c -0.351,-0.372 -0.847,-1.003 -1.106,-1.396 -0.259,-0.399 -0.594,-1.058 -0.745,-1.462 -0.15,-0.405 -0.339,-1.067 -0.415,-1.472 -0.081,-0.404 -0.146,-1.117 -0.146,-1.587 0,-0.463 0.07,-1.191 0.162,-1.619 0.087,-0.424 0.291,-1.094 0.458,-1.493 0.163,-0.399 0.481,-1.008 0.702,-1.354 0.254,-0.398 1.494,-1.725 3.377,-3.618 1.634,-1.647 3.247,-3.189 3.581,-3.432 0.335,-0.242 0.944,-0.597 1.354,-0.793 0.405,-0.194 1.1,-0.442 1.543,-0.561 0.566,-0.146 1.127,-0.205 1.904,-0.211 0.782,-0.004 1.359,0.056 1.974,0.206 0.48,0.113 1.165,0.34 1.521,0.496 0.351,0.163 0.928,0.486 1.278,0.723 0.421,0.276 3.075,2.859 7.762,7.551 5.351,5.352 7.244,7.305 7.594,7.843 0.26,0.394 0.583,0.977 0.723,1.295 0.141,0.318 0.351,0.965 0.464,1.441 0.173,0.722 0.195,1.078 0.157,2.21 -0.038,1.025 -0.103,1.528 -0.275,2.055 -0.124,0.389 -0.362,0.972 -0.524,1.306 -0.167,0.329 -0.442,0.804 -0.609,1.053 -0.162,0.247 -1.591,1.752 -3.167,3.338 -1.574,1.591 -3.111,3.085 -3.419,3.322 -0.302,0.233 -0.798,0.567 -1.106,0.739 -0.307,0.173 -0.825,0.41 -1.154,0.524 -0.329,0.113 -0.928,0.269 -1.332,0.351 -0.4,0.079 -1.085,0.145 -1.516,0.145 -0.432,0 -1.117,-0.066 -1.521,-0.145 -0.404,-0.076 -1.068,-0.266 -1.473,-0.416 -0.404,-0.151 -1.084,-0.501 -1.504,-0.772 -0.464,-0.306 -1.387,-1.11 -2.347,-2.06 l -1.58,-1.565 -0.933,0.934 0.356,0.783 c 0.199,0.43 0.474,1.158 0.62,1.622 0.145,0.458 0.34,1.253 0.426,1.754 0.103,0.555 0.167,1.466 0.167,2.32 0,0.872 -0.064,1.763 -0.172,2.357 -0.092,0.522 -0.319,1.407 -0.507,1.967 -0.189,0.557 -0.529,1.393 -0.761,1.851 -0.232,0.464 -0.636,1.154 -0.895,1.542 -0.259,0.384 -0.858,1.128 -1.327,1.652 -0.469,0.523 -2.293,2.377 -4.051,4.114 -1.753,1.743 -3.474,3.376 -3.813,3.636 -0.34,0.259 -0.955,0.668 -1.365,0.912 -0.41,0.243 -1.1,0.599 -1.543,0.792 -0.442,0.195 -1.111,0.444 -1.494,0.556 -0.378,0.114 -1.095,0.281 -1.592,0.378 -0.63,0.124 -1.375,0.172 -2.459,0.172 -1.187,-0.005 -1.785,-0.053 -2.551,-0.215 -0.555,-0.119 -1.295,-0.314 -1.656,-0.427 -0.356,-0.119 -1.003,-0.377 -1.435,-0.572 l -0.782,-0.356 -0.982,0.972 1.786,1.812 1.785,1.818 0.416,0.847 c 0.307,0.614 0.453,1.073 0.533,1.667 0.087,0.604 0.093,0.997 0.011,1.5 -0.059,0.376 -0.205,0.937 -0.318,1.25 -0.119,0.308 -0.356,0.782 -0.529,1.052 -0.177,0.27 -4.428,4.602 -9.444,9.623 -5.578,5.582 -9.348,9.277 -9.688,9.498 -0.307,0.2 -0.824,0.459 -1.154,0.577 -0.448,0.167 -0.869,0.226 -1.699,0.248 z m 27.012,-94.392 c 0.68,0.01 1.375,-0.054 1.974,-0.178 0.507,-0.104 1.29,-0.351 1.737,-0.54 0.448,-0.195 1.062,-0.507 1.37,-0.69 0.308,-0.184 0.939,-0.69 1.408,-1.127 0.464,-0.438 1.035,-1.069 1.273,-1.403 0.237,-0.335 0.588,-0.923 0.782,-1.311 0.189,-0.384 0.442,-0.993 0.555,-1.354 0.119,-0.355 0.265,-0.932 0.33,-1.273 0.075,-0.394 0.096,-1.144 0.07,-2.007 -0.043,-1.1 -0.108,-1.563 -0.324,-2.281 -0.146,-0.496 -0.469,-1.285 -0.717,-1.753 -0.249,-0.469 -0.637,-1.09 -0.858,-1.376 -0.221,-0.291 -0.712,-0.813 -1.084,-1.164 -0.378,-0.356 -1.052,-0.874 -1.511,-1.154 -0.452,-0.28 -1.203,-0.648 -1.672,-0.815 -0.463,-0.167 -1.262,-0.379 -1.764,-0.464 -0.647,-0.113 -1.229,-0.146 -1.968,-0.108 -0.583,0.032 -1.413,0.151 -1.845,0.264 -0.437,0.114 -1.138,0.356 -1.559,0.534 -0.415,0.185 -1.03,0.507 -1.359,0.728 -0.329,0.217 -0.955,0.733 -1.386,1.144 -0.432,0.41 -1.031,1.122 -1.338,1.581 -0.307,0.458 -0.685,1.143 -0.846,1.52 -0.157,0.378 -0.384,1.091 -0.508,1.575 -0.161,0.679 -0.216,1.192 -0.21,2.142 0,0.781 0.064,1.532 0.167,1.984 0.086,0.4 0.291,1.069 0.453,1.485 0.162,0.408 0.475,1.05 0.696,1.423 0.221,0.372 0.653,0.977 0.966,1.343 0.307,0.372 0.927,0.949 1.375,1.284 0.442,0.339 1.154,0.787 1.575,0.998 0.426,0.216 1.09,0.485 1.484,0.604 0.387,0.118 0.927,0.254 1.196,0.297 0.265,0.048 0.961,0.087 1.538,0.092 m -49.64,-3.118 -8.344,8.339 -3.776,-3.54 8.501,-8.5 c 6.596,-6.59 8.528,-8.474 8.619,-8.376 0.065,0.069 0.841,0.906 1.732,1.866 0.885,0.956 1.612,1.769 1.612,1.801 0,0.037 -3.754,3.82 -8.344,8.41"
             style="fill:#97988c;fill-opacity:1;fill-rule:nonzero;stroke:none"
             id="path182" />
        </g>
      </g>
    </g>
  </g>
</svg>
